<?xml version="1.0" standalone="no"?>
<!DOCTYPE svg PUBLIC "-//W3C//DTD SVG 1.1//EN" "http://www.w3.org/Graphics/SVG/1.1/DTD/svg11.dtd" >
<svg xmlns="http://www.w3.org/2000/svg">
<metadata>Generated by IcoMoon</metadata>
<defs>
<font id="gonicon-arrow-fill" horiz-adv-x="1024">
<font-face units-per-em="1024" ascent="960" descent="-64" />
<missing-glyph horiz-adv-x="1024" />
<glyph unicode="&#x20;" horiz-adv-x="512" d="" />
<glyph unicode="&#xe900;" glyph-name="circle-down" horiz-adv-x="1017" d="M787.567 581.677c-38.55 38.543-101.049 38.543-139.598 0l-130.111-130.125c-2.431-2.427-5.788-3.929-9.495-3.929s-7.064 1.501-9.495 3.929v0l-130.111 130.125c-38.55 38.564-101.049 38.564-139.598 0-38.55-38.55-38.55-101.049 0-139.598l213.521-213.521c36.279-36.279 95.086-36.279 131.379 0l213.507 213.521c38.564 38.55 38.564 101.049 0 139.598zM508.371 956.733c-280.465 0-507.806-227.356-507.806-507.806 0-280.465 227.342-507.806 507.806-507.806 280.451 0 507.806 227.342 507.806 507.806 0 280.451-227.356 507.806-507.806 507.806zM508.371 917.236c63.237 0 124.552-12.372 182.272-36.794 57.881-24.808 107.292-58.672 148.867-100.356l0.010-0.010c41.688-41.592 75.554-91.001 99.216-145.846l1.164-3.031c24.409-57.706 36.78-119.035 36.78-182.272s-12.372-124.566-36.78-182.272c-24.826-57.876-58.692-107.285-100.371-148.868l-0.009-0.009c-41.588-41.694-90.999-75.562-145.847-99.217l-3.030-1.163c-57.72-24.409-119.035-36.78-182.272-36.78s-124.566 12.372-182.286 36.78c-57.878 24.822-107.288 58.689-148.868 100.371l-0.009 0.009c-41.688 41.588-75.551 90.999-99.203 145.846l-1.163 3.031c-24.423 57.706-36.78 119.035-36.78 182.272s12.358 124.566 36.78 182.272c23.587 55.77 57.358 105.841 100.366 148.877 41.586 41.694 90.998 75.559 145.847 99.21l3.030 1.163c57.72 24.423 119.049 36.794 182.286 36.794z" />
<glyph unicode="&#xe901;" glyph-name="circle-left" horiz-adv-x="1031" d="M650.836 167.424c38.814 38.814 38.814 101.741 0 140.569l-131.002 130.988c-2.451 2.445-3.967 5.825-3.967 9.56s1.516 7.115 3.967 9.559v0l131.002 131.002c38.828 38.814 38.828 101.741 0 140.569-38.814 38.814-101.741 38.814-140.569 0l-214.984-214.998c-36.513-36.513-36.513-95.737 0-132.264l214.984-214.984c38.814-38.814 101.741-38.814 140.569 0zM517.183 959.832c-282.386 0-511.292-228.913-511.292-511.285s228.899-511.285 511.285-511.285c282.372 0 511.285 228.913 511.285 511.285s-228.906 511.285-511.278 511.285zM517.183 920.064c63.67 0 125.405-12.456 183.52-37.032 58.275-24.988 108.024-59.088 149.887-101.057l0.010-0.010c41.973-41.877 76.072-91.625 99.896-146.845l1.172-3.052c24.576-58.101 37.032-119.85 37.032-183.52s-12.456-125.419-37.032-183.52c-24.996-58.272-59.094-108.020-101.058-149.888l-0.009-0.009c-41.873-41.98-91.622-76.079-146.846-99.897l-3.051-1.171c-58.116-24.576-119.85-37.032-183.52-37.032s-125.419 12.456-183.534 37.032c-58.274 24.992-108.023 59.091-149.888 101.058l-0.009 0.009c-41.976 41.873-76.073 91.622-99.889 146.846l-1.171 3.051c-24.583 58.101-37.032 119.85-37.032 183.52s12.442 125.419 37.032 183.52c24.985 58.274 59.080 108.023 101.044 149.888l0.009 0.009c41.874 41.977 91.623 76.076 146.846 99.896l3.051 1.171c58.116 24.576 119.864 37.032 183.534 37.032z" />
<glyph unicode="&#xe902;" glyph-name="circle-left-down" d="M801.325 344.207c0 54.516-44.206 98.708-98.722 98.708h-184c-7.408 0.004-13.413 6.008-13.416 13.416v0 184.013c0 54.53-44.206 98.722-98.722 98.722s-98.722-44.192-98.722-98.722v-301.962c0-51.311 41.601-92.884 92.898-92.884h301.962c54.516 0 98.722 44.178 98.722 98.708zM510.015 955.57c-129.957 0-259.915-49.584-359.055-148.738-198.322-198.308-198.322-519.83 0-718.151 99.14-99.14 229.125-148.724 359.055-148.724 129.985 0 259.915 49.57 359.069 148.724 198.322 198.322 198.322 519.844 0 718.151-99.154 99.154-229.111 148.738-359.069 148.738zM510.015 916.072c0.191 0 0.418 0 0.645 0 63.301 0 123.659-12.598 178.704-35.424l-3.095 1.137c58.055-23.545 110.188-58.166 154.91-102.874 44.694-44.722 79.315-96.841 102.86-154.91 22.765-56.104 34.287-115.399 34.287-176.239 0-0.204 0.001-0.445 0.001-0.687 0-63.286-12.598-123.63-35.424-178.66l1.137 3.094c-23.545-58.068-58.166-110.174-102.86-154.896-44.722-44.722-96.855-79.343-154.91-102.888-51.953-21.68-112.313-34.273-175.614-34.273-0.225 0-0.449 0-0.674 0h0.034c-0.188 0-0.411 0-0.634 0-63.294 0-123.646 12.598-178.685 35.424l3.094-1.137c-58.082 23.545-110.216 58.166-154.924 102.874-44.708 44.722-79.329 96.827-102.86 154.896-21.684 51.932-34.28 112.27-34.28 175.55 0 0.247 0 0.495 0.001 0.742v-0.038c0 60.841 11.522 120.135 34.287 176.239 23.531 58.068 58.152 110.188 102.86 154.91 44.722 44.708 96.841 79.329 154.91 102.874 51.949 21.689 112.306 34.287 175.605 34.287 0.223 0 0.447 0 0.67 0h-0.035z" />
<glyph unicode="&#xe903;" glyph-name="circle-left-up" horiz-adv-x="1017" d="M405.295 156.473c54.516 0 98.708 44.185 98.708 98.708v183.986c0 7.426 6.019 13.43 13.43 13.43h184.013c54.516 0 98.708 44.192 98.708 98.708s-44.192 98.722-98.708 98.722h-301.976c-51.311 0-92.898-41.587-92.898-92.884v-301.976c0-54.516 44.206-98.708 98.722-98.708zM508.865 955.57c-129.978 0-259.901-49.57-359.076-148.738-198.322-198.308-198.322-519.83 0-718.151 99.154-99.154 229.111-148.724 359.069-148.724s259.915 49.57 359.069 148.724c198.322 198.322 198.322 519.844 0 718.151-99.14 99.14-229.125 148.738-359.062 148.738zM508.865 916.072c0.185 0 0.405 0 0.624 0 63.303 0 123.663-12.598 178.711-35.424l-3.095 1.137c58.068-23.559 110.202-58.166 154.91-102.874 44.722-44.722 79.329-96.841 102.86-154.91 21.697-51.939 34.301-112.287 34.301-175.579 0-0.232 0-0.464-0.001-0.696v0.035c0-0.193 0-0.421 0-0.65 0-63.3-12.603-123.656-35.438-178.696l1.137 3.093c-23.531-58.068-58.138-110.174-102.86-154.896s-96.848-79.329-154.91-102.874c-51.946-21.689-112.299-34.287-175.595-34.287-0.227 0-0.453 0-0.68 0h0.035c-0.195 0-0.425 0-0.655 0-63.292 0-123.642 12.598-178.679 35.424l3.094-1.137c-58.068 23.545-110.202 58.152-154.924 102.874-44.708 44.722-79.315 96.827-102.86 154.896-21.689 51.953-34.287 112.314-34.287 175.618 0 0.223 0 0.446 0 0.669v-0.034c0 0.191 0 0.418 0 0.644 0 63.296 12.598 123.649 35.424 178.689l-1.137-3.094c23.545 58.068 58.152 110.188 102.86 154.91 44.736 44.722 96.855 79.329 154.924 102.874 51.94 21.689 112.286 34.287 175.575 34.287 0.234 0 0.467 0 0.701-0.001h-0.036z" />
<glyph unicode="&#xe904;" glyph-name="circle-right" d="M378.741 726.974c-38.55-38.55-38.55-101.049 0-139.612l130.111-130.097c2.434-2.428 3.94-5.785 3.94-9.495s-1.506-7.067-3.94-9.494v0l-130.111-130.111c-38.564-38.55-38.564-101.049 0-139.612 38.55-38.55 101.049-38.55 139.612 0l213.521 213.521c36.265 36.279 36.265 95.1 0 131.379l-213.521 213.521c-38.55 38.55-101.049 38.55-139.612 0zM511.485 955.57c-280.451 0-507.806-227.356-507.806-507.806 0-280.465 227.356-507.806 507.806-507.806 280.465 0 507.806 227.342 507.806 507.806 0 280.451-227.342 507.806-507.806 507.806zM511.485 916.072c63.237 0 124.566-12.372 182.272-36.78 57.88-24.815 107.292-58.683 148.867-100.37l0.010-0.010c41.697-41.586 75.565-90.997 99.217-145.848l1.162-3.029c24.409-57.706 36.78-119.035 36.78-182.272s-12.372-124.566-36.78-182.272c-24.815-57.88-58.683-107.292-100.37-148.867l-0.010-0.010c-41.586-41.697-90.997-75.565-145.848-99.217l-3.029-1.162c-57.706-24.409-119.035-36.78-182.272-36.78s-124.552 12.372-182.272 36.78c-57.88 24.815-107.292 58.683-148.867 100.37l-0.010 0.010c-41.688 41.592-75.554 91.001-99.216 145.846l-1.164 3.031c-24.409 57.706-36.78 119.035-36.78 182.272s12.372 124.566 36.78 182.272c24.826 57.876 58.692 107.285 100.371 148.868l0.009 0.009c41.586 41.697 90.997 75.565 145.848 99.217l3.029 1.162c57.72 24.409 119.035 36.78 182.272 36.78z" />
<glyph unicode="&#xe905;" glyph-name="circle-right-down" horiz-adv-x="1031" d="M622.276 741.832c-54.889 0-99.384-44.495-99.384-99.384v-185.274c-0.004-7.459-6.050-13.504-13.508-13.508h-185.274c-54.903 0-99.398-44.495-99.398-99.398 0-54.889 44.495-99.384 99.398-99.384h304.030c51.663 0 93.535 41.872 93.535 93.521v304.044c0 54.889-44.495 99.384-99.398 99.384zM518.018 959.825c-130.848 0-261.695-49.924-361.528-149.756-199.68-199.666-199.68-523.39 0-723.070 99.819-99.819 230.695-149.742 361.528-149.742 130.862 0 261.681 49.909 361.528 149.742 199.68 199.68 199.666 523.404 0 723.070-99.833 99.833-230.681 149.756-361.528 149.756zM518.018 920.057c0.192 0 0.421 0 0.649 0 63.729 0 124.496-12.685 179.913-35.667l-3.116 1.145c58.466-23.706 110.943-58.564 155.971-103.578 45.028-45.028 79.872-97.49 103.564-155.957 21.846-52.303 34.536-113.073 34.536-176.806 0-0.23 0-0.46 0-0.69v0.036c0-0.194 0-0.424 0-0.654 0-63.734-12.69-124.503-35.681-179.92l1.145 3.114c-23.692-58.466-58.536-110.929-103.564-155.957s-97.518-79.886-155.971-103.592c-52.305-21.829-113.073-34.508-176.803-34.508-0.226 0-0.453 0-0.679 0h0.036c-0.192 0-0.421 0-0.649 0-63.729 0-124.496 12.685-179.913 35.667l3.116-1.145c-58.48 23.706-110.957 58.564-155.985 103.578-45.014 45.028-79.858 97.49-103.564 155.957-21.837 52.309-34.522 113.084-34.522 176.821 0 0.225 0 0.449 0 0.674v-0.035c0 0.19 0 0.415 0 0.639 0 63.738 12.685 124.512 35.667 179.938l-1.145-3.117c23.706 58.466 58.55 110.929 103.564 155.957 45.028 45.014 97.518 79.872 155.985 103.578 52.298 21.837 113.061 34.522 176.787 34.522 0.232 0 0.464 0 0.695-0.001h-0.036z" />
<glyph unicode="&#xe906;" glyph-name="circle-right-up" d="M220.557 551.326c0-54.516 44.192-98.708 98.708-98.708h184.013c7.398 0 13.416-6.019 13.416-13.43v-184.013c0-54.516 44.206-98.708 98.722-98.708s98.708 44.192 98.708 98.708v197.444h0.014v104.532c0 51.298-41.601 92.884-92.898 92.884h-301.976c-54.516 0-98.708-44.192-98.708-98.708zM511.854 955.57c-129.971 0-259.901-49.57-359.069-148.738-198.322-198.308-198.322-519.83 0-718.151 99.154-99.154 229.111-148.724 359.069-148.724s259.915 49.57 359.069 148.724c198.322 198.322 198.322 519.844 0 718.151-99.14 99.14-229.125 148.738-359.069 148.738zM511.854 916.072c0.189 0 0.412 0 0.635 0 63.299 0 123.656-12.598 178.7-35.424l-3.095 1.137c58.082-23.559 110.202-58.166 154.91-102.874 44.722-44.722 79.329-96.841 102.874-154.91 21.689-51.946 34.287-112.299 34.287-175.595 0-0.227 0-0.453 0-0.68v0.035c0-0.189 0-0.412 0-0.635 0-63.304-12.598-123.665-35.424-178.714l1.137 3.096c-23.545-58.068-58.152-110.174-102.874-154.896-44.708-44.722-96.841-79.329-154.91-102.874-51.946-21.689-112.299-34.287-175.595-34.287-0.227 0-0.453 0-0.68 0h0.035c-0.191 0-0.418 0-0.644 0-63.296 0-123.649 12.598-178.689 35.424l3.094-1.137c-58.068 23.545-110.188 58.152-154.91 102.874s-79.329 96.827-102.874 154.896c-21.693 51.958-34.294 112.325-34.294 175.635 0 0.217 0 0.435 0 0.652v-0.034c0 0.191 0 0.418 0 0.644 0 63.296 12.598 123.649 35.424 178.689l-1.137-3.094c23.545 58.068 58.152 110.188 102.874 154.91s96.855 79.329 154.91 102.874c51.942 21.689 112.292 34.287 175.584 34.287 0.23 0 0.461 0 0.691-0.001h-0.036z" />
<glyph unicode="&#xe907;" glyph-name="circle-up" d="M234.496 316.176c38.55-38.55 101.049-38.55 139.612 0l130.090 130.111c2.431 2.427 5.788 3.929 9.495 3.929s7.064-1.501 9.495-3.929v0l130.125-130.111c38.536-38.564 101.035-38.564 139.584 0 38.564 38.55 38.564 101.049 0 139.598l-213.501 213.535c-36.293 36.265-95.1 36.265-131.379 0l-213.521-213.521c-38.564-38.564-38.564-101.063 0-139.612zM513.707 956.733c-280.465 0-507.806-227.356-507.806-507.806 0-280.465 227.342-507.806 507.806-507.806 280.451 0 507.806 227.342 507.806 507.806 0 280.451-227.356 507.806-507.806 507.806zM513.707 917.236c63.237 0 124.552-12.372 182.272-36.794 57.881-24.808 107.292-58.672 148.867-100.356l0.010-0.010c41.688-41.592 75.554-91.001 99.216-145.846l1.164-3.031c24.409-57.706 36.78-119.035 36.78-182.272s-12.372-124.566-36.78-182.272c-24.826-57.876-58.692-107.285-100.371-148.868l-0.009-0.009c-41.588-41.694-90.999-75.562-145.847-99.217l-3.030-1.163c-57.72-24.409-119.035-36.78-182.272-36.78s-124.566 12.372-182.286 36.78c-57.878 24.818-107.289 58.686-148.867 100.37l-0.010 0.010c-41.688 41.588-75.551 90.999-99.203 145.846l-1.163 3.031c-24.423 57.706-36.78 119.035-36.78 182.272s12.351 124.566 36.78 182.279c24.815 57.878 58.678 107.289 100.357 148.868l0.009 0.009c41.587 41.691 90.998 75.554 145.847 99.203l3.030 1.163c57.72 24.423 119.049 36.794 182.286 36.794z" />
<glyph unicode="&#xe908;" glyph-name="diamond-down" horiz-adv-x="1343" d="M483.627 33.183l-450.898 644.318c-83.301 119.083 2.038 282.498 147.553 282.498h982.248c145.678 0 230.98-163.763 147.301-282.788l-452.917-644.434c-90.846-129.208-282.74-128.995-373.277 0.396z" />
<glyph unicode="&#xe909;" glyph-name="diamond-left" horiz-adv-x="781" d="M74.111 591.191l491.351 343.85c90.812 63.525 215.43-1.554 215.43-112.522v-749.052c0-111.093-124.884-176.143-215.644-112.331l-491.432 345.412c-98.554 69.249-98.392 215.578 0.295 284.643z" />
<glyph unicode="&#xe90a;" glyph-name="diamond-right" horiz-adv-x="781" d="M706.781 304.809l-491.358-343.843c-90.819-63.54-215.423 1.554-215.423 112.507v749.067c0 111.086 124.869 176.135 215.629 112.316l491.446-345.412c98.554-69.256 98.392-215.578-0.295-284.643z" />
<glyph unicode="&#xe90b;" glyph-name="diamond-up" horiz-adv-x="1343" d="M859.184 862.817l450.879-644.338c83.301-119.064-2.029-282.479-147.553-282.479h-982.229c-145.678 0-230.999 163.763-147.321 282.788l452.927 644.415c90.827 129.208 282.721 129.024 373.277-0.386z" />
<glyph unicode="&#xe90c;" glyph-name="hat-down" horiz-adv-x="1719" d="M1718.857 820.645l-139.209 139.355-744.411-745.271-696.027 696.841-139.209-139.374 835.237-836.197z" />
<glyph unicode="&#xe90d;" glyph-name="hat-left" horiz-adv-x="610" d="M527.011-64l83.031 82.922-443.991 443.49 415.123 414.655-83.015 82.933-498.16-497.588z" />
<glyph unicode="&#xe90e;" glyph-name="hat-left-double" horiz-adv-x="937" d="M583.322 875.68l-82.624 82.624-495.789-495.773 524.505-524.505 82.635 82.624-441.87 441.875zM495.258 462.531l413.149 413.154-82.624 82.624-495.789-495.779 524.505-524.505 82.635 82.624z" />
<glyph unicode="&#xe90f;" glyph-name="hat-left-up" horiz-adv-x="964" d="M964.204 960h-964.204v-1024h160.701v862.686h803.504z" />
<glyph unicode="&#xe910;" glyph-name="hat-right" horiz-adv-x="610" d="M83.031 960l-83.031-82.922 443.991-443.49-415.123-414.655 83.015-82.933 498.16 497.588z" />
<glyph unicode="&#xe911;" glyph-name="hat-right-double" horiz-adv-x="937" d="M357.186 18.841l82.624-82.624 495.789 495.779-524.505 524.505-82.635-82.624 441.88-441.88zM445.261 431.995l-413.154-413.154 82.624-82.624 495.789 495.779-524.505 524.505-82.635-82.624z" />
<glyph unicode="&#xe912;" glyph-name="hat-right-up" horiz-adv-x="1088" d="M0 960v-170.667h916.186v-853.333h171.318v1024z" />
<glyph unicode="&#xe913;" glyph-name="hat-up" horiz-adv-x="1719" d="M0 75.355l139.209-139.355 744.411 745.271 696.027-696.841 139.209 139.374-835.237 836.197z" />
<glyph unicode="&#xe914;" glyph-name="rectangle-down" d="M979.046 269.468c0-77.277-30.097-149.936-84.744-204.584-54.635-54.635-127.294-84.731-204.571-84.731h-358.871c-77.277 0-149.936 30.097-204.571 84.731-54.647 54.647-84.744 127.307-84.744 204.584v358.871c0 77.277 30.097 149.936 84.744 204.571 54.635 54.647 127.294 84.744 204.571 84.744h358.871c77.277 0 149.936-30.097 204.571-84.744 54.647-54.635 84.744-127.294 84.744-204.571v-358.871zM689.731 957.176h-358.871c-181.611 0-328.85-147.214-328.85-328.838v-358.871c0-181.611 147.24-328.85 328.85-328.85h358.871c181.611 0 328.838 147.24 328.838 328.85v358.871c0 181.623-147.227 328.838-328.838 328.838zM510.283 405.272l-241.562 241.562-116.297-116.291 357.859-357.878 357.878 357.878-116.304 116.304z" />
<glyph unicode="&#xe915;" glyph-name="rectangle-left" d="M983.294 269.468c0-77.277-30.084-149.936-84.731-204.584-54.647-54.635-127.294-84.731-204.571-84.731h-358.883c-77.277 0-149.924 30.097-204.571 84.731-54.647 54.647-84.731 127.307-84.731 204.584v358.871c0 77.277 30.084 149.936 84.731 204.571 54.647 54.647 127.294 84.744 204.571 84.744h358.883c77.277 0 149.924-30.097 204.571-84.744 54.647-54.635 84.731-127.294 84.731-204.571v-358.871zM693.992 957.176h-358.883c-181.611 0-328.85-147.214-328.85-328.838v-358.871c0-181.611 147.24-328.85 328.85-328.85h358.883c181.611 0 328.838 147.24 328.838 328.85v358.871c0 181.623-147.227 328.838-328.838 328.838zM712.488 690.465l-116.304 116.304-357.853-357.866 357.853-357.866 116.304 116.304-241.562 241.562z" />
<glyph unicode="&#xe916;" glyph-name="rectangle-left-down" d="M978.651 270.441c0-77.277-30.084-149.924-84.731-204.571s-127.307-84.744-204.571-84.744h-358.883c-77.277 0-149.924 30.097-204.571 84.744s-84.731 127.294-84.731 204.571v358.871c0 77.29 30.084 149.936 84.731 204.584 54.647 54.635 127.294 84.731 204.571 84.731h358.883c77.264 0 149.924-30.097 204.571-84.731 54.647-54.647 84.731-127.294 84.731-204.584v-358.871zM689.349 958.162h-358.883c-181.611 0-328.85-147.227-328.85-328.85v-358.871c0-181.611 147.24-328.838 328.85-328.838h358.883c181.611 0 328.838 147.227 328.838 328.838v358.871c0 181.623-147.227 328.85-328.838 328.85zM449.396 729.034h-164.476l0.013-506.098h506.098v164.476h-341.622z" />
<glyph unicode="&#xe917;" glyph-name="rectangle-left-up" d="M981.062 270.441c0-77.277-30.084-149.924-84.731-204.571s-127.294-84.744-204.571-84.744h-358.883c-77.277 0-149.924 30.097-204.571 84.744s-84.731 127.294-84.731 204.571v358.871c0 77.29 30.084 149.936 84.731 204.584 54.647 54.635 127.294 84.731 204.571 84.731h358.883c77.277 0 149.924-30.097 204.571-84.731 54.647-54.647 84.731-127.294 84.731-204.584v-358.871zM691.76 958.162h-358.883c-181.611 0-328.85-147.227-328.85-328.85v-358.871c0-181.611 147.24-328.838 328.85-328.838h358.883c181.611 0 328.838 147.227 328.838 328.838v358.871c0 181.623-147.227 328.85-328.838 328.85zM285.372 674.857v-506.11h164.476v341.634h341.622v164.476z" />
<glyph unicode="&#xe918;" glyph-name="rectangle-right" horiz-adv-x="1018" d="M977.189 269.468c0-77.277-30.103-149.936-84.75-204.584-54.647-54.635-127.294-84.731-204.571-84.731h-358.871c-77.277 0-149.936 30.097-204.584 84.731-54.635 54.647-84.731 127.307-84.731 204.584v358.871c0 77.277 30.097 149.936 84.731 204.571 54.647 54.647 127.307 84.744 204.584 84.744h358.871c77.277 0 149.924-30.097 204.571-84.744 54.647-54.635 84.744-127.294 84.744-204.571v-358.871zM687.861 957.176h-358.864c-181.611 0-328.85-147.214-328.85-328.838v-358.871c0-181.611 147.24-328.85 328.85-328.85h358.871c181.611 0 328.838 147.24 328.838 328.85v358.871c0 181.623-147.227 328.838-328.838 328.838zM310.488 690.465l241.562-241.575-241.562-241.55 116.316-116.304 357.853 357.866-357.866 357.866z" />
<glyph unicode="&#xe919;" glyph-name="rectangle-right-down" d="M979.357 267.808c0-77.277-30.097-149.936-84.744-204.584-54.647-54.635-127.294-84.731-204.571-84.731h-358.871c-77.277 0-149.936 30.097-204.584 84.731-54.635 54.647-84.731 127.307-84.731 204.584v358.871c0 77.277 30.097 149.936 84.731 204.571 54.647 54.647 127.307 84.744 204.584 84.744h358.871c77.277 0 149.924-30.097 204.571-84.744 54.647-54.635 84.744-127.294 84.744-204.571v-358.871zM690.042 955.529h-358.871c-181.611 0-328.85-147.227-328.85-328.85v-358.871c0-181.611 147.24-328.85 328.85-328.85h358.871c181.611 0 328.838 147.24 328.838 328.85v358.871c0 181.623-147.227 328.85-328.838 328.85zM573.071 728.372v-341.622l-341.609-0.013v-164.476l506.098 0.013-0.013 506.098z" />
<glyph unicode="&#xe91a;" glyph-name="rectangle-right-up" d="M982.105 267.808c0-77.277-30.097-149.936-84.744-204.584-54.635-54.635-127.294-84.731-204.571-84.731h-358.877c-77.277 0-149.936 30.097-204.584 84.731-54.635 54.647-84.731 127.307-84.731 204.584v358.871c0 77.277 30.097 149.936 84.731 204.571 54.654 54.647 127.307 84.744 204.584 84.744h358.871c77.277 0 149.936-30.097 204.571-84.744 54.647-54.635 84.744-127.294 84.744-204.571v-358.871zM692.79 955.529h-358.877c-181.604 0-328.844-147.227-328.844-328.85v-358.871c0-181.611 147.24-328.85 328.85-328.85h358.871c181.611 0 328.838 147.24 328.838 328.85v358.871c0 181.623-147.227 328.85-328.838 328.85zM232.213 674.183v-164.476h341.634v-341.622h164.476v506.098z" />
<glyph unicode="&#xe91b;" glyph-name="rectangle-up" d="M982.372 269.468c0-77.277-30.084-149.936-84.731-204.584-54.647-54.635-127.307-84.731-204.571-84.731h-358.883c-77.277 0-149.924 30.097-204.571 84.731-54.647 54.647-84.731 127.307-84.731 204.584v358.871c0 77.277 30.084 149.936 84.731 204.571 54.647 54.647 127.294 84.744 204.571 84.744h358.883c77.264 0 149.924-30.097 204.571-84.744 54.647-54.635 84.731-127.294 84.731-204.571v-358.871zM693.076 957.176h-358.89c-181.604 0-328.844-147.214-328.844-328.838v-358.871c0-181.611 147.24-328.85 328.85-328.85h358.883c181.611 0 328.825 147.24 328.825 328.85v358.871c0 181.623-147.214 328.838-328.825 328.838zM155.762 367.257l116.31-116.304 241.562 241.569 241.562-241.562 116.304 116.304-357.866 357.866z" />
<glyph unicode="&#xe91c;" glyph-name="sharp-down" horiz-adv-x="901" d="M811.002 479.054l-295.731-297.054v778h-127.438v-779.96l-297.738 299.037-90.094-90.504 450.566-452.573 450.554 452.549z" />
<glyph unicode="&#xe91d;" glyph-name="sharp-left" horiz-adv-x="1164" d="M617.12 38.393l-337.561 336.071h884.078v144.816h-886.305l339.815 338.332-102.865 102.387-514.281-512.007 514.261-511.993z" />
<glyph unicode="&#xe91e;" glyph-name="sharp-left-down" d="M1024 839.41l-120.355 120.59-733.419-734.732v563.388h-170.226v-852.656h851.093v170.523h-558.666z" />
<glyph unicode="&#xe91f;" glyph-name="sharp-left-up" d="M1024 56.355l-734.763 733.419h563.427v170.226h-852.664v-851.093h170.523v558.666l732.887-731.574z" />
<glyph unicode="&#xe920;" glyph-name="sharp-right" horiz-adv-x="1164" d="M546.517 857.607l337.561-336.071h-884.078v-144.816h886.305l-339.815-338.332 102.846-102.387 514.301 512.020-514.261 511.98z" />
<glyph unicode="&#xe921;" glyph-name="sharp-right-down" d="M853.461 787.093v-558.666l-732.903 731.574-120.558-120.355 734.732-733.434h-563.411v-170.211h852.679v851.093z" />
<glyph unicode="&#xe922;" glyph-name="sharp-right-up" d="M172.923 960v-170.523h558.658l-731.582-732.903 120.371-120.574 733.419 734.747v-563.427h170.211v852.679z" />
<glyph unicode="&#xe923;" glyph-name="sharp-up" horiz-adv-x="901" d="M90.112 416.941l295.749 297.065v-778.006h127.427v779.954l297.727-299.037 90.106 90.504-450.572 452.579-450.548-452.549z" />
<glyph unicode="&#xe924;" glyph-name="soft-down" horiz-adv-x="901" d="M785.356 405.070l-266.201-265.547v752.983c0 37.272-30.292 67.493-67.675 67.493-37.363 0-67.668-30.221-67.668-67.493v-755.057l-268.307 267.646c-26.417 26.358-69.256 26.358-95.679 0-12.246-12.2-19.823-29.078-19.823-47.726s7.577-35.527 19.821-47.724l0.002-0.002 334.926-334.109c52.853-52.71 138.532-52.71 191.384 0l334.9 334.083c12.246 12.2 19.823 29.078 19.823 47.726s-7.577 35.527-19.821 47.724l-0.002 0.002c-26.423 26.358-69.263 26.358-95.679 0z" />
<glyph unicode="&#xe925;" glyph-name="soft-left" horiz-adv-x="1164" d="M533.187 67.293l-301.844 302.603h855.909c42.367 0 76.719 34.433 76.719 76.911 0 42.47-34.352 76.918-76.719 76.918h-858.267l304.231 304.975c29.961 30.035 29.961 78.745 0 108.772-13.87 13.915-33.054 22.524-54.25 22.524s-40.38-8.609-54.248-22.522l-0.002-0.002-379.779-380.714c-59.915-60.070-59.915-157.468 0-217.537l379.749-380.685c13.867-13.92 33.053-22.533 54.25-22.533s40.383 8.613 54.248 22.531l0.002 0.002c29.946 30.035 29.946 78.73 0 108.758z" />
<glyph unicode="&#xe926;" glyph-name="soft-left-down" d="M998.188 934.138c-15.936 15.981-37.976 25.868-62.324 25.868s-46.388-9.887-62.322-25.866l-0.002-0.002-697.251-698.563v495.244c0 48.771-39.454 88.309-88.132 88.309-48.695 0-88.14-39.538-88.14-88.301v-618.208h-0.017c0-97.568 78.933-176.619 176.28-176.619h616.998c48.67 0 88.157 39.521 88.157 88.309 0 48.763-39.471 88.301-88.157 88.301h-490.411l695.321 696.633c34.418 34.486 34.418 90.408 0 124.894z" />
<glyph unicode="&#xe927;" glyph-name="soft-left-up" d="M998.138 86.469l-698.554 697.242h495.244c48.771 0 88.309 39.462 88.309 88.157 0 48.67-39.538 88.132-88.309 88.132h-618.208c-97.534 0-176.619-78.916-176.619-176.28v-616.998c0-48.687 39.538-88.14 88.301-88.14 48.788 0 88.326 39.454 88.326 88.14v490.42l696.633-695.33c34.469-34.418 90.391-34.418 124.877 0 15.977 15.939 25.862 37.98 25.862 62.329s-9.885 46.389-25.86 62.327l-0.002 0.002z" />
<glyph unicode="&#xe928;" glyph-name="soft-right" horiz-adv-x="1164" d="M630.784 828.7l301.844-302.596h-855.909c-42.367 0-76.719-34.418-76.719-76.911 0-42.47 34.352-76.911 76.719-76.911h858.267l-304.231-304.99c-29.961-30.028-29.961-78.723 0-108.758 13.867-13.92 33.053-22.533 54.25-22.533s40.383 8.613 54.248 22.531l0.002 0.002 379.779 380.714c59.915 60.077 59.915 157.46 0 217.53l-379.749 380.692c-13.87 13.915-33.054 22.524-54.25 22.524s-40.38-8.609-54.248-22.522l-0.002-0.002c-29.961-30.028-29.961-78.737 0-108.772z" />
<glyph unicode="&#xe929;" glyph-name="soft-right-down" d="M935.691 817.436c-48.763 0-88.301-39.471-88.301-88.14v-490.42l-696.625 695.296c-34.503 34.427-90.417 34.427-124.911 0-15.97-15.939-25.85-37.976-25.85-62.32s9.88-46.381 25.849-62.319l698.556-697.252h-495.227c-48.771 0-88.309-39.437-88.309-88.132 0-48.678 39.538-88.14 88.309-88.14l618.208-0.008c97.534 0 176.61 78.933 176.61 176.297v616.998c0 48.67-39.538 88.14-88.309 88.14z" />
<glyph unicode="&#xe92a;" glyph-name="soft-right-up" d="M847.72 960h-616.998c-48.67 0-88.14-39.538-88.14-88.309 0-48.78 39.471-88.301 88.14-88.301h490.411l-695.321-696.633c-34.418-34.503-34.418-90.408 0-124.894 15.936-15.981 37.976-25.868 62.324-25.868s46.388 9.887 62.322 25.866l0.002 0.002 697.251 698.546v-495.235c0-48.763 39.454-88.301 88.132-88.301 48.695 0 88.14 39.538 88.14 88.301v618.208h0.017c0 97.551-78.933 176.619-176.28 176.619z" />
<glyph unicode="&#xe92b;" glyph-name="soft-up" horiz-adv-x="901" d="M115.505 490.93l266.201 265.547v-752.983c0-37.285 30.292-67.493 67.662-67.493h0.013c37.363 0 67.668 30.202 67.668 67.493v755.057l268.307-267.646c26.417-26.358 69.256-26.358 95.679 0 12.247 12.197 19.825 29.073 19.825 47.72s-7.578 35.523-19.823 47.718l-0.002 0.002-334.926 334.122c-52.853 52.71-138.532 52.71-191.384 0l-334.9-334.083c-12.246-12.2-19.823-29.078-19.823-47.726s7.577-35.527 19.821-47.724l0.002-0.002c26.423-26.358 69.263-26.358 95.679 0z" />
<glyph unicode="&#xe92c;" glyph-name="triangle-down" horiz-adv-x="1429" d="M712.721-64l-712.721 1024h1428.645z" />
<glyph unicode="&#xe92d;" glyph-name="triangle-left" horiz-adv-x="734" d="M0 449.142l733.965 510.858v-1024z" />
<glyph unicode="&#xe92e;" glyph-name="triangle-right" horiz-adv-x="734" d="M733.965 446.875l-733.965-510.875v1024z" />
<glyph unicode="&#xe92f;" glyph-name="triangle-up" horiz-adv-x="1429" d="M715.908 960l712.737-1024h-1428.645z" />
<glyph unicode="&#xe930;" glyph-name="woolen-hat-down" horiz-adv-x="1729" d="M1698.758 929.386c-18.767 18.91-44.769 30.615-73.506 30.615s-54.739-11.706-73.499-30.609l-0.006-0.006-702.599-706.328c-2.574-2.596-6.142-4.203-10.085-4.203s-7.511 1.607-10.084 4.202l-0.001 0.001-651.496 654.945c-18.77 18.911-44.776 30.617-73.515 30.617s-54.746-11.706-73.509-30.611l-0.006-0.006c-40.603-40.815-40.603-106.979 0-147.784l776.917-781.022c8.093-8.152 19.305-13.197 31.696-13.197s23.602 5.046 31.693 13.195l0.003 0.003 827.991 832.406c40.612 40.796 40.612 106.989 0 147.784z" />
<glyph unicode="&#xe931;" glyph-name="woolen-hat-left" horiz-adv-x="606" d="M588.262-45.968c11.198 11.113 18.13 26.511 18.13 43.529s-6.932 32.415-18.126 43.525l-0.004 0.004-418.267 416.064c-1.537 1.524-2.489 3.637-2.489 5.972s0.952 4.448 2.489 5.972l0.001 0.001 387.85 385.813c11.194 11.115 18.123 26.513 18.123 43.529s-6.929 32.413-18.119 43.525l-0.004 0.004c-24.17 24.044-63.356 24.044-87.526 0l-462.516-460.073c-4.822-4.793-7.807-11.43-7.807-18.764s2.985-13.971 7.806-18.762l0.001-0.001 492.944-490.336c24.158-24.044 63.356-24.044 87.515 0z" />
<glyph unicode="&#xe932;" glyph-name="woolen-hat-left-double" horiz-adv-x="978" d="M169.114 458.16c-1.523 1.523-2.465 3.627-2.465 5.951s0.942 4.428 2.465 5.951l384.478 384.478c23.95 23.962 23.95 62.805 0 86.767-23.962 23.95-62.817 23.95-86.767 0l-458.49-458.49c-4.783-4.789-7.741-11.402-7.741-18.705s2.958-13.916 7.741-18.705v0l488.653-488.641c23.962-23.962 62.805-23.962 86.756 0 23.973 23.95 23.973 62.794 0 86.756l-414.629 414.64zM959.215 43.52l-414.629 414.64c-1.523 1.523-2.465 3.627-2.465 5.951s0.942 4.428 2.465 5.951l384.478 384.478c23.95 23.962 23.95 62.805 0 86.767-23.973 23.95-62.817 23.95-86.767 0l-458.49-458.49c-4.783-4.789-7.741-11.402-7.741-18.705s2.958-13.916 7.741-18.705v0l488.653-488.641c23.95-23.962 62.805-23.962 86.756 0 23.962 23.95 23.962 62.794 0 86.756z" />
<glyph unicode="&#xe933;" glyph-name="woolen-hat-left-up" horiz-adv-x="964" d="M883.839 960h-849.195c-19.12 0-34.644-15.569-34.644-34.779v-908.572c0-44.54 35.989-80.649 80.35-80.649 44.391 0 80.358 36.109 80.358 80.657v770.96c0 6.114 4.933 11.062 11.017 11.062h712.114c44.398 0 80.365 36.117 80.365 80.664s-35.975 80.657-80.365 80.657z" />
<glyph unicode="&#xe934;" glyph-name="woolen-hat-right" horiz-adv-x="606" d="M18.117 941.98c-11.192-11.116-18.12-26.513-18.12-43.529s6.928-32.413 18.117-43.525l0.003-0.003 418.278-416.087c3.318-3.289 3.318-8.638 0-11.939l-387.85-385.808c-11.192-11.116-18.12-26.513-18.12-43.529s6.928-32.413 18.117-43.525l0.003-0.003c24.176-24.044 63.356-24.044 87.521 0l462.51 460.062c4.827 4.793 7.815 11.432 7.815 18.77s-2.988 13.977-7.814 18.768l-0.002 0.002-492.927 490.347c-24.164 24.033-63.356 24.033-87.526 0z" />
<glyph unicode="&#xe935;" glyph-name="woolen-hat-right-double" horiz-adv-x="978" d="M969.335 452.654l-488.641 488.653c-23.962 23.95-62.805 23.95-86.756 0-23.973-23.962-23.973-62.805 0-86.767l414.629-414.64c1.523-1.523 2.465-3.627 2.465-5.951s-0.942-4.428-2.465-5.951l-384.478-384.478c-23.95-23.962-23.95-62.805 0-86.756 23.962-23.962 62.805-23.962 86.767 0l458.479 458.479c4.787 4.787 7.748 11.4 7.748 18.705s-2.961 13.918-7.748 18.705v0zM593.869 452.654l-488.641 488.653c-23.962 23.95-62.805 23.95-86.756 0-23.973-23.962-23.973-62.805 0-86.767l414.629-414.64c1.523-1.523 2.465-3.627 2.465-5.951s-0.942-4.428-2.465-5.951l-384.478-384.478c-23.95-23.962-23.95-62.805 0-86.756 23.962-23.962 62.805-23.962 86.767 0l458.479 458.479c4.787 4.787 7.748 11.4 7.748 18.705s-2.961 13.918-7.748 18.705v0z" />
<glyph unicode="&#xe936;" glyph-name="woolen-hat-right-up" horiz-adv-x="1088" d="M1087.504 923.207c0 20.321-16.535 36.793-36.92 36.793h-964.933c-47.302 0-85.651-38.206-85.651-85.333s38.348-85.333 85.659-85.333h818.795c6.477 0 11.74-5.255 11.74-11.709v-756.291c0-47.128 38.364-85.333 85.651-85.333 47.31 0 85.667 38.206 85.667 85.333v901.874z" />
<glyph unicode="&#xe937;" glyph-name="woolen-hat-up" horiz-adv-x="1729" d="M30.43-33.386c18.77-18.911 44.776-30.617 73.515-30.617s54.746 11.706 73.509 30.611l0.006 0.006 702.609 706.328c2.574 2.596 6.142 4.203 10.085 4.203s7.511-1.607 10.084-4.202l0.001-0.001 651.496-654.945c18.766-18.907 44.767-30.61 73.501-30.61s54.735 11.704 73.495 30.604l0.006 0.006c40.622 40.796 40.622 106.96 0 147.784l-776.888 781.022c-8.093 8.152-19.305 13.197-31.696 13.197s-23.602-5.046-31.693-13.195l-0.003-0.003-828.030-832.406c-40.583-40.796-40.583-106.989 0-147.784z" />
</font>
</defs>
</svg>
