<svg xmlns="http://www.w3.org/2000/svg" width="320" height="568" viewBox="0 0 320 568">
    <g fill="none" fill-rule="evenodd">
        <path fill="#B6E5EF" d="M-61.923 134.218c-12.729 6.139-26.657 8.635-40.279 7.21-16.666-1.74-32.165-9.908-39.49-20.81-4.895-7.286-6.004-15.566-3.3-24.611 5.177-17.324 24.672-37.576 63.86-43.468.292.139.585.275.881.405 8.978 3.968 25.963 12.23 38.844 23.004 12.785 10.697 17.631 20.498 14.395 29.12-4.164 11.092-21.408 22.635-34.911 29.15m69.278-81.98C-11.41 29.516-37.3 14.994-50.122 8.726-54.962 1.47-63.068-2.419-72.492-1.82c-52.555 3.34-111.502 31.268-124.725 86.135-5.587 23.187-1.539 45.795 11.71 65.383 3.225 4.769 6.953 9.252 11.105 13.404 15.737 15.737 37.565 26.715 61.136 30.302 24.635 3.753 52.963-.657 77.717-12.093 26.745-12.358 47.048-31.718 57.172-54.517 10.822-24.375 5.889-50.156-14.268-74.556"/>
        <path fill="#4ABDE5" d="M128.393 57.916c-3.11-9.501-10.183-17.107-19.564-20.98-9.743-4.02-20.466-3.33-31.87 2.05-9.006 4.25-16.193 10.2-20.785 17.208-8.064 12.304-6.616 29.745 3.366 40.563a30.169 30.169 0 0 0 7.767 6.05c8.914 8.407 21.828 11.753 33.416 8.533 6.238-1.735 11.769-5.178 16.111-10.01 14.275-8.945 19.423-28.387 11.559-43.414"/>
        <path fill="#FF9CCE" d="M321.764 562.69l7.703-114.687c.957-14.242 1.562-28.16-.823-41.331-13.603-12.468-31.586-16.372-53.405 6.391 5.065 9.785 2.896 26.739 1.148 40.382-.647 5.037-1.257 9.794-1.552 14.2l-6.26 93.184c-.964 14.333 8.864 25.599 23.363 26.793 13.762 1.13 28.68-7.887 29.826-24.932"/>
        <path fill="#B6E5EF" d="M328.644 406.672a78.323 78.323 0 0 0-2.315-9.515c-4.898-15.628-14.41-27.315-29.08-35.723-30.074-17.242-66.422-12.791-94.73-6.985-9.974 2.045-20.259 4.693-31.395 8.096l19.878-36.019c.9-1.633 1.856-3.287 2.828-4.971 6.071-10.523 13.629-23.62 11.948-38.568-1.914-17.047-13.685-30.588-31.49-36.217-15.096-4.776-30.88-3.082-44.807-1.589-2.06.222-4.108.442-6.135.64-.403.037-.81.079-1.215.118a375.147 375.147 0 0 0 26.56-25.763c-33.53 9.501-42.782-11.6-44.71-30.618-39.107 39.794-88.535 69.64-143.246 86.44-16.375 5.027-21.141 21.07-17.312 33.614 1.476 4.826 3.837 8.659 6.75 11.572 6.806 6.807 16.616 8.579 25.088 6.237 54.21-14.986 108.232-24.873 160.563-29.387 1.756-.15 3.539-.348 5.333-.55 2.063-.23 4.07-.454 6-.597-.905 1.39-1.832 2.732-2.477 3.67-1.464 2.125-2.73 3.959-3.664 5.652l-51.17 92.729c-5.313 9.628-3.414 22.694 4.619 31.77 7.101 7.998 17.363 10.652 26.8 6.893 23.846-9.502 48.502-19.324 73.46-26.267l.49-.137c22.507-6.26 50.513-14.05 71.298-5.832 4.015 1.59 6.766 3.981 8.646 7.527.03.055.052.117.08.171 21.819-22.763 39.803-18.858 53.405-6.39"/>
        <path fill="#4ABDE5" d="M148.69 220.176c1.205-1.292 2.4-2.59 3.584-3.895 9.39-10.355 18.174-21.231 26.109-32.327 23.435-32.768 37.92-70.623 40.785-106.59 3.287-41.275-8.457-79.307-33.963-109.982-9.133-11-23.723-12.41-34.672-3.358-10.675 8.826-15.062 25.962-3.925 39.357 41.142 49.48 13.913 118.724-21.903 162.984a324.807 324.807 0 0 1-17.528 19.903 325.306 325.306 0 0 1-3.195 3.288c1.928 19.02 11.18 40.12 44.708 30.62"/>
    </g>
</svg>
