<?xml version="1.0" standalone="no"?>
<!DOCTYPE svg PUBLIC "-//W3C//DTD SVG 1.1//EN" "http://www.w3.org/Graphics/SVG/1.1/DTD/svg11.dtd" >
<svg xmlns="http://www.w3.org/2000/svg">
<metadata>Generated by IcoMoon</metadata>
<defs>
<font id="icomoon" horiz-adv-x="1024">
<font-face units-per-em="1024" ascent="960" descent="-64" />
<missing-glyph horiz-adv-x="1024" />
<glyph unicode="&#x20;" horiz-adv-x="512" d="" />
<glyph unicode="&#xe900;" glyph-name="1" d="M516.189 953.242c-276.797 0.149-501.332-224.070-501.499-500.922-0.149-276.703 224.163-501.257 500.941-501.369 276.722-0.186 501.295 224.126 501.425 500.829 0.168 276.852-224.163 501.313-500.866 501.462z" />
<glyph unicode="&#xe901;" glyph-name="2" d="M297.183 230.093v438.533h438.57v-438.533h-438.57zM516.468 953.223c-276.778 0.168-501.332-224.033-501.481-500.885-0.149-276.722 224.163-501.276 500.922-501.388 276.722-0.186 501.295 224.126 501.425 500.829 0.186 276.852-224.144 501.313-500.866 501.462z" />
<glyph unicode="&#xe902;" glyph-name="3" d="M39.404-25.375h964.813v964.772h-964.813z" />
<glyph unicode="&#xe903;" glyph-name="4" horiz-adv-x="2027" d="M1772.629 442.027v502.357h-1005.141v-502.357h-753.835v-502.357h2010.24v502.357z" />
<glyph unicode="&#xe904;" glyph-name="5" horiz-adv-x="1609" d="M453.437 899.633h0.195c0.247 0.001 0.54 0.001 0.832 0.001 104.286 0 198.658-42.443 266.787-110.996l0.019-0.019c22.849-22.873 42.804-48.645 59.265-76.713l0.972-1.793h-136.663v-382.748h-516.957c-33.381 55.054-53.136 121.588-53.136 192.736 0 0.384 0.001 0.768 0.002 1.152v-0.060c0.114 208.652 170 378.441 378.685 378.441zM1410.649 327.363v382.732h-562.582c-70.526 146.903-220.631 248.361-394.419 248.442h-0.228c-241.518 0-437.427-195.698-437.573-437.313 0-0.228-0.001-0.498-0.001-0.768 0-77.504 20.255-150.278 55.76-213.316l-1.129 2.181v-364.707h1531.628v382.748h-191.455z" />
<glyph unicode="&#xe905;" glyph-name="6" horiz-adv-x="1593" d="M709.063 711.249l-463.108 0.065v-382.781h-135.379c-32.565 54.53-51.819 120.272-51.819 190.512 0 0.355 0 0.709 0.001 1.064v-0.055c0.114 208.668 170 378.441 378.669 378.441h0.195c0.238 0.001 0.519 0.001 0.8 0.001 104.301 0 198.687-42.455 266.818-111.028l0.020-0.020c22.251-22.259 41.759-47.261 57.974-74.455l0.963-1.744h-55.133zM304.859 387.356v265.053h265.070v-265.037h-265.070zM1394.655 328.533v382.716h-563.753c-70.965 145.636-220.371 246.053-393.249 246.15h-0.228c-241.534 0-437.427-195.698-437.573-437.329 0-0.232-0.001-0.506-0.001-0.78 0-77.5 20.255-150.27 55.76-213.303l-1.129 2.181v-362.398h1531.611v382.748h-191.439z" />
<glyph unicode="&#xe906;" glyph-name="7" horiz-adv-x="2027" d="M343.253 519.253v347.819h347.947v-347.819h-347.947zM1773.611 442.005v502.336l-1507.648 0.085v-502.4h-251.307v-502.4h2010.24v502.4h-251.285z" />
<glyph unicode="&#xe907;" glyph-name="8" horiz-adv-x="1241" d="M73.098 169.058h231.936v-231.838h-231.936zM536.999 169.058h231.956v-231.838h-231.956zM1000.901 169.058h231.956v-231.838h-231.956zM421.041 766.946v0.128h-231.936v-201.748h-0.030v-30.238h-115.988v-11.018c-20.909 36.923-33.231 81.091-33.231 128.137 0 0.166 0 0.333 0 0.499v-0.026c0.089 146.363 118.764 264.911 265.078 264.911h0.138c105.334-0.059 196.303-61.578 238.986-150.646h-123.018zM224.788 570.841v160.551h160.571v-160.551h-160.571zM1232.857 303.232v231.857h-115.988v231.857h-533.662c-15.982 38.193-38.124 70.794-65.521 98.131l-0.005 0.005c-56.783 56.812-132.273 88.143-212.588 88.182h-0.158c-165.74 0-300.662-134.833-300.761-300.564-0.039-70.794 24.271-137.846 68.923-191.685v-157.785h1159.759z" />
<glyph unicode="&#xe908;" glyph-name="9" horiz-adv-x="1293" d="M655.050 139.269l-145.739-145.718-119.291 119.26 172.239 172.229-172.291 172.28 291.478 291.447 119.28-119.27-172.239-172.229 172.291-172.28-145.739-145.718zM46.721 662.978c0.083 143.153 116.571 259.548 259.724 259.548h0.124c89.005-0.041 172.073-46.597 219.281-120.77l-359.838 0.134v-243.691h-97.27c-13.921 30.823-22.032 66.826-22.032 104.724 0 0.019 0 0.039 0 0.058v-0.003zM437.765 558.261h-234.268v206.145l234.268-0.093v-206.052zM1168.767 558.178v243.578h-599.805c-51.169 96.39-152.741 158.203-262.372 158.244h-0.155c-163.778 0.010-297.105-133.213-297.198-297.001 0-0.029 0-0.064 0-0.099 0-52.906 13.821-102.584 38.049-145.621l-0.771 1.491 25.755-46.328v-157.81h407.397l29.582-29.582-172.239-172.229 172.301-172.28 344.478 344.447-29.634 29.644h466.448v243.557h-121.846z" />
<glyph unicode="&#xe909;" glyph-name="10" horiz-adv-x="1267" d="M1026.362-54.52h238.835v238.744h-238.835zM642.23 150.482l-142.853-142.833-116.918 116.908 168.828 168.818-168.889 168.869 285.716 285.666 116.918-116.898-168.828-168.818 168.879-168.869-142.853-142.843zM45.948 663.821c0.081 140.318 114.272 254.418 254.581 254.418h0.132c87.233-0.041 168.656-45.674 214.928-118.378l-352.702 0.132v-238.876h-95.344c-13.643 30.23-21.593 65.539-21.595 102.704v0.001zM429.269 561.187h-229.64v202.063l229.629-0.081v-201.981zM1145.795 561.117v238.734h-587.938c-50.156 94.492-149.737 155.080-257.176 155.121h-0.152c-160.545 0.010-291.222-130.555-291.323-291.12 0-0.009 0-0.019 0-0.029 0-51.879 13.551-100.593 37.306-142.795l-0.756 1.462 25.245-45.441v-154.665h399.33l28.996-28.996-168.838-168.808 168.889-168.879 337.667 337.626-29.047 29.057h457.201v238.734h-119.413z" />
<glyph unicode="&#xe90a;" glyph-name="11" horiz-adv-x="1293" d="M655.37 139.269l-145.739-145.718-119.28 119.26 172.239 172.239-172.301 172.28 291.478 291.437 119.291-119.27-172.249-172.229 172.301-172.28-145.739-145.718zM47.042 662.978c0.083 143.153 116.571 259.558 259.724 259.558h0.134c88.995-0.052 172.063-46.608 219.27-120.78l-359.827 0.134v-243.691h-97.27c-13.915 30.842-22.025 66.862-22.032 104.777v0.002zM438.096 558.261h-234.279v206.145l234.279-0.093v-206.052zM1169.087 558.178v243.578h-599.805c-51.169 96.39-152.752 158.203-262.361 158.244h-0.165c-163.788 0.010-297.094-133.203-297.198-297.012 0-0.010 0-0.023 0-0.035 0-52.92 13.821-102.613 38.050-145.665l-0.772 1.492 25.755-46.359v-157.789h407.407l29.582-29.582-172.249-172.229 172.301-172.28 344.488 344.447-29.644 29.644h466.448v243.557h-121.835zM1025.469 173.733h-0.062c-55.224 0-99.98-44.756-99.98-99.969 0-55.203 44.756-99.969 99.98-99.969h0.062c55.213 0 99.98 44.766 99.98 99.969 0 55.213-44.766 99.969-99.98 99.969z" />
<glyph unicode="&#xe90b;" glyph-name="12" horiz-adv-x="1293" d="M655.536 139.269l-145.739-145.718-119.291 119.26 172.239 172.229-172.291 172.28 291.478 291.447 119.28-119.27-172.239-172.229 172.301-172.28-145.739-145.718zM47.207 662.978c0.072 143.153 116.581 259.548 259.724 259.548h0.134c88.995-0.041 172.063-46.597 219.26-120.77l-359.817 0.134v-243.691h-97.28c-13.918 30.841-22.029 66.863-22.032 104.778v0.001zM203.993 558.261v206.145l234.258-0.093v-206.052h-234.258zM1169.243 558.178v243.578h-599.795c-51.169 96.39-152.762 158.203-262.351 158.244h-0.155c-163.788 0.010-297.125-133.213-297.219-297.012 0-0.013 0-0.028 0-0.043 0-52.918 13.821-102.608 38.050-145.657l-0.772 1.492 25.755-46.349v-157.799h407.387l29.582-29.582-172.218-172.239 172.301-172.28 344.478 344.457-29.644 29.644h466.448v243.557h-121.846zM983.288 244.069l-57.82-100.135 57.82-100.145h115.64l57.82 100.145-57.82 100.135z" />
<glyph unicode="&#xe90c;" glyph-name="13" horiz-adv-x="1098" d="M78.383 668.84c0.084 138.398 112.268 250.461 250.619 250.461h0.13c99.523-0.047 185.493-58.154 225.876-142.28l-335.518-0.028v-219.183h-109.829v-10.333c-19.682 34.849-31.279 76.521-31.279 120.901 0 0.162 0 0.324 0 0.486v-0.025zM253.217 591.472v151.794h151.822v-151.794h-151.831zM109.661 338.609h877.205v219.201h-109.642v219.21h-285.203c-15.107 36.050-36.018 66.821-61.882 92.63l-0.005 0.005c-53.676 53.732-125.058 83.344-200.983 83.382h-0.149c-156.7 0-284.262-127.479-284.355-284.179-0.037-66.867 22.9-130.206 65.024-181.071v-149.178zM27.425 156.979h822.402c0.15-0.003 0.327-0.005 0.505-0.005 15.136 0 27.406 12.27 27.406 27.406s-12.27 27.406-27.406 27.406c-0.178 0-0.355-0.002-0.532-0.005h-822.375c-0.15 0.003-0.327 0.005-0.505 0.005-15.136 0-27.406-12.27-27.406-27.406s12.27-27.406 27.406-27.406c0.178 0 0.355 0.002 0.532 0.005h-0.027zM877.224 74.761c0.005-15.132 12.273-27.397 27.406-27.397h164.492c14.917 0.284 26.901 12.443 26.901 27.401s-11.984 27.118-26.874 27.401h-164.519c-15.136 0-27.406-12.27-27.406-27.406v0zM657.92 74.78c-0.005 15.132-12.273 27.397-27.406 27.397h-603.089c-0.15 0.003-0.327 0.005-0.505 0.005-15.136 0-27.406-12.27-27.406-27.406s12.27-27.406 27.406-27.406c0.178 0 0.355 0.002 0.532 0.005h603.053c15.136 0 27.406 12.27 27.406 27.406v0zM1069.112-7.447h-822.384c-0.15 0.003-0.327 0.005-0.505 0.005-15.136 0-27.406-12.27-27.406-27.406s12.27-27.406 27.406-27.406c0.178 0 0.355 0.002 0.532 0.005h822.357c0.15-0.003 0.327-0.005 0.505-0.005 15.136 0 27.406 12.27 27.406 27.406s-12.27 27.406-27.406 27.406c-0.178 0-0.355-0.002-0.532-0.005h0.027z" />
<glyph unicode="&#xe90d;" glyph-name="14" horiz-adv-x="1108" d="M84.154 668.188c0.084 138.38 112.286 250.461 250.619 250.461h0.13c99.002-0.056 184.571-57.558 225.224-140.968h-115.731v-219.21h-328.946v-11.646c-19.694 34.855-31.298 76.536-31.298 120.928 0 0.153 0 0.306 0 0.458v-0.023zM115.451 339.261h877.196v219.21h-109.652v219.21h-285.761c-15.089 35.515-35.793 65.834-61.324 91.318l-0.004 0.004c-53.676 53.704-125.058 83.326-200.983 83.363h-0.149c-156.7 0.009-284.262-127.469-284.355-284.16-0.037-66.867 22.9-130.216 65.033-181.080v-147.866zM33.196 157.64h822.402c0.15-0.003 0.327-0.005 0.505-0.005 15.136 0 27.406 12.27 27.406 27.406s-12.27 27.406-27.406 27.406c-0.178 0-0.355-0.002-0.532-0.005h-822.375c-0.15 0.003-0.327 0.005-0.505 0.005-15.136 0-27.406-12.27-27.406-27.406s12.27-27.406 27.406-27.406c0.178 0 0.355 0.002 0.532 0.005h-0.027zM882.995 75.422c0.005-15.132 12.273-27.397 27.406-27.397h164.492c14.917 0.284 26.901 12.443 26.901 27.401s-11.984 27.118-26.874 27.401h-164.519c-15.136 0-27.406-12.27-27.406-27.406v0zM663.692 75.441c-0.005 15.129-12.268 27.391-27.396 27.397h-603.099c-0.15 0.003-0.327 0.005-0.505 0.005-15.136 0-27.406-12.27-27.406-27.406s12.27-27.406 27.406-27.406c0.178 0 0.355 0.002 0.532 0.005h603.072c15.132 0.005 27.397 12.273 27.397 27.406v0zM1074.883-6.786h-822.384c-0.15 0.003-0.327 0.005-0.505 0.005-15.136 0-27.406-12.27-27.406-27.406s12.27-27.406 27.406-27.406c0.178 0 0.355 0.002 0.532 0.005h822.357c0.15-0.003 0.327-0.005 0.505-0.005 15.136 0 27.406 12.27 27.406 27.406s-12.27 27.406-27.406 27.406c-0.178 0-0.355-0.002-0.532-0.005h0.027z" />
<glyph unicode="&#xe90e;" glyph-name="15" horiz-adv-x="1119" d="M403.162 160.834l0.019 0.019h218.69l-55.827-55.817h-107.074l-55.808 55.799zM536.756 294.419l24.301 24.292-157.943 157.924 267.188 267.16 109.35-109.34-157.895-157.867 157.943-157.924-102.002-101.992h-218.7l77.758 77.748zM97.308 680.837c0.076 131.224 106.866 237.938 238.080 237.938h0.123c82.204-0.047 156.577-41.263 200.097-109.227h-105.747v-223.26h-313.012c-12.351 27.861-19.541 60.359-19.541 94.536 0 0.005 0 0.010 0 0.014v-0.001zM512.503 2.911l46.317 46.308h83.674c0.153-0.003 0.334-0.005 0.514-0.005 15.416 0 27.913 12.497 27.913 27.913s-12.497 27.913-27.913 27.913c-0.181 0-0.361-0.002-0.541-0.005h-27.82l55.817 55.817h195.394c0.153-0.003 0.334-0.005 0.514-0.005 15.416 0 27.913 12.497 27.913 27.913s-12.497 27.913-27.913 27.913c-0.181 0-0.361-0.002-0.541-0.005h-139.55l102.002 101.992-27.183 27.174h204.335v223.27h-111.673v223.26l-309.741 0.009-3.66 7.519c-46.033 94.464-139.852 153.173-244.831 153.23h-0.142c-150.139 0-272.356-122.121-272.431-272.261 0-0.018 0-0.039 0-0.060 0-48.402 12.619-93.858 34.746-133.255l-0.708 1.371 15.019-27.108v-175.967l373.314 0.009 27.145-27.136-102.059-102.040h-382.18c-0.153 0.003-0.334 0.005-0.514 0.005-15.416 0-27.913-12.497-27.913-27.913s12.497-27.913 27.913-27.913c0.181 0 0.361 0.002 0.541 0.005l326.307-0.019 55.808-55.799h-382.151c-0.153 0.003-0.334 0.005-0.514 0.005-15.416 0-27.913-12.497-27.913-27.913s12.497-27.913 27.913-27.913c0.181 0 0.361 0.002 0.541 0.005h437.951l46.308-46.298zM893.762 77.113c0-15.416 12.497-27.913 27.913-27.913h167.538c0.153-0.003 0.334-0.005 0.514-0.005 15.416 0 27.913 12.497 27.913 27.913s-12.497 27.913-27.913 27.913c-0.181 0-0.361-0.002-0.541-0.005h-167.511c-15.413 0-27.908-12.492-27.913-27.903v-0.001zM1089.214-6.618h-837.623c-0.153 0.003-0.334 0.005-0.514 0.005-15.416 0-27.913-12.497-27.913-27.913s12.497-27.913 27.913-27.913c0.181 0 0.361 0.002 0.541 0.005h837.596c15.193 0.289 27.399 12.673 27.399 27.909s-12.206 27.62-27.372 27.908h-0.027z" />
<glyph unicode="&#xe90f;" glyph-name="16" horiz-adv-x="1678" d="M1508.38 276.565v334.905h-502.556v334.876h-670.080v-334.891h-167.524v-334.905h-167.509v-334.862h1675.207v334.876z" />
<glyph unicode="&#xe910;" glyph-name="17" horiz-adv-x="1140" d="M1025.188 499.49v227.483h-341.359v227.473h-455.168v-227.473h-113.78v-227.483h-113.78v-227.473h1137.877v227.473zM249.025-28.856c-41.829 0-75.873 34.034-75.873 75.863s34.034 75.873 75.873 75.873h0.058c41.839 0 75.873-34.034 75.873-75.873 0-41.829-34.034-75.863-75.931-75.863zM249.083 157.88h-0.058c-61.15 0-110.882-49.732-110.882-110.872 0-61.131 49.741-110.862 110.94-110.862 61.15 0 110.882 49.732 110.882 110.862 0 61.141-49.741 110.872-110.882 110.872zM570.011-28.856c-41.839 0-75.873 34.034-75.873 75.863s34.034 75.873 75.873 75.873h0.058c41.829 0 75.873-34.034 75.873-75.873 0-41.829-34.034-75.863-75.931-75.863zM570.069 157.88h-0.058c-61.15 0-110.882-49.732-110.882-110.872 0-61.131 49.741-110.862 110.94-110.862 61.15 0 110.882 49.732 110.882 110.862 0 61.141-49.741 110.872-110.882 110.872zM890.996-28.856c-41.849 0-75.873 34.034-75.873 75.863s34.024 75.873 75.873 75.873h0.048c41.839 0 75.873-34.034 75.873-75.873 0-41.829-34.034-75.863-75.931-75.863zM891.044 157.88h-0.048c-61.15 0-110.891-49.732-110.891-110.872 0-61.131 49.751-110.862 110.94-110.862 61.15 0 110.882 49.732 110.882 110.862 0 61.141-49.741 110.872-110.882 110.872z" />
<glyph unicode="&#xe911;" glyph-name="18" horiz-adv-x="1140" d="M1024.869 499.654v227.473h-341.359v227.483h-455.158v-227.483h-113.78v-227.473h-113.79v-227.483h1137.877v227.483zM613.618-29.010h-87.794l-43.897 76.027 43.897 76.027h87.794l43.897-76.027-43.897-76.027zM505.614 158.044l-64.126-111.046 64.106-111.027h128.222l64.116 111.027-64.116 111.036h-128.213zM278.026-29.010h-87.794l-43.897 76.027 43.897 76.027h87.803l43.897-76.027-43.897-76.027zM170.023 158.044l-64.116-111.046 64.116-111.027h128.222l64.116 111.027-64.116 111.036h-128.222zM949.2-29.010h-87.794l-43.897 76.027 43.897 76.027h87.794l43.897-76.027-43.897-76.027zM841.197 158.044l-64.116-111.046 64.116-111.027h128.213l64.116 111.027-64.116 111.036h-128.213z" />
<glyph unicode="&#xe912;" glyph-name="19" horiz-adv-x="1172" d="M1051.815 494.159v231.857h-347.934v231.847h-463.882v-231.847h-115.988v-231.857h-115.978v-231.857h1159.759v231.857zM260.785 128.138h-0.049c-52.569 0-95.183-42.604-95.183-95.163s42.614-95.163 95.183-95.163h0.049c52.569 0 95.183 42.604 95.183 95.163s-42.614 95.163-95.183 95.163zM587.943 128.138h-0.059c-52.559 0-95.173-42.604-95.173-95.163s42.614-95.163 95.173-95.163h0.059c52.559 0 95.173 42.604 95.173 95.163s-42.614 95.163-95.173 95.163zM915.102 128.138h-0.059c-52.569 0-95.173-42.604-95.173-95.163s42.604-95.163 95.173-95.163h0.059c52.559 0 95.173 42.604 95.173 95.163s-42.614 95.163-95.173 95.163z" />
<glyph unicode="&#xe913;" glyph-name="20" horiz-adv-x="1161" d="M1041.954 496.742v229.649h-344.61v229.639h-459.483v-229.639h-114.883v-229.649h-114.854v-229.649h1148.704v229.649zM527.945 134.207l-54.516-94.423 54.516-94.413h109.041l54.516 94.413-54.516 94.423zM189.167 134.207l-54.516-94.423 54.516-94.413h109.032l54.526 94.413-54.516 94.423zM975.765 134.207h-109.032l-54.516-94.423 54.516-94.413h109.032l54.516 94.413z" />
<glyph unicode="&#xe914;" glyph-name="21" horiz-adv-x="1339" d="M1202.435 693.389v264.98h-795.265v-264.98h-397.627v-264.968h1325.439v264.968zM42.659 208.879h994.101c0.257-0.007 0.56-0.011 0.863-0.011 18.296 0 33.128 14.832 33.128 33.128s-14.832 33.128-33.128 33.128c-0.304 0-0.606-0.004-0.908-0.012l0.044 0.001h-994.101c-0.182 0.004-0.396 0.006-0.611 0.006-18.296 0-33.128-14.832-33.128-33.128s14.832-33.128 33.128-33.128c0.215 0 0.429 0.002 0.643 0.006h-0.032zM1301.853 142.6h-198.836c-0.257 0.007-0.56 0.011-0.863 0.011-18.296 0-33.128-14.832-33.128-33.128s14.832-33.128 33.128-33.128c0.304 0 0.606 0.004 0.908 0.012l-0.044-0.001h198.836c0.182-0.004 0.396-0.006 0.611-0.006 18.296 0 33.128 14.832 33.128 33.128s-14.832 33.128-33.128 33.128c-0.215 0-0.429-0.002-0.643-0.006h0.032zM804.796 109.506c-0.006 18.287-14.83 33.11-33.116 33.117h-729.032c-0.182 0.004-0.396 0.006-0.611 0.006-18.296 0-33.128-14.832-33.128-33.128s14.832-33.128 33.128-33.128c0.215 0 0.429 0.002 0.643 0.006h728.988c18.291 0.006 33.117 14.836 33.117 33.128v0zM1301.842 10.111h-994.079c-0.182 0.004-0.396 0.006-0.611 0.006-18.296 0-33.128-14.832-33.128-33.128s14.832-33.128 33.128-33.128c0.215 0 0.429 0.002 0.643 0.006h994.058c0.182-0.004 0.396-0.006 0.611-0.006 18.296 0 33.128 14.832 33.128 33.128s-14.832 33.128-33.128 33.128c-0.215 0-0.429-0.002-0.643-0.006h0.032z" />
<glyph unicode="&#xe915;" glyph-name="22" horiz-adv-x="954" d="M6.435-61.059h236.514v1011.069h-236.524zM361.191-61.059h236.504v1011.069h-236.504zM715.957-61.059h236.494v1011.069h-236.494z" />
<glyph unicode="&#xe916;" glyph-name="23" horiz-adv-x="954" d="M6.596 244.174h236.494v709.19h-236.494zM361.352 244.174h236.504v709.19h-236.504zM716.107 244.174h236.514v709.19h-236.514zM124.888 178.698h-0.080c-65.285 0-118.212-52.907-118.212-118.192s52.927-118.202 118.212-118.202h0.070c65.295 0 118.212 52.917 118.212 118.202 0 65.275-52.917 118.192-118.212 118.192zM479.634 178.698h-0.070c-65.285 0-118.212-52.907-118.212-118.192s52.927-118.202 118.212-118.202h0.070c65.295 0 118.222 52.917 118.222 118.202 0 65.275-52.927 118.192-118.222 118.192zM834.399 178.698h-0.080c-65.285 0-118.212-52.907-118.212-118.192s52.927-118.202 118.212-118.202h0.080c65.285 0 118.212 52.917 118.212 118.202 0 65.275-52.927 118.192-118.212 118.192z" />
<glyph unicode="&#xe917;" glyph-name="24" horiz-adv-x="1150" d="M1111.475 307.181h-840.279v157.464h341.359v227.492h385.13v-227.483h113.79v-157.464zM1032.694 499.664v227.473h-341.369v227.483h-455.129v-227.483h-113.799v-227.473h-113.78v-227.483h1137.877v227.483h-113.799zM256.589 140.549h-0.058c-51.567 0-93.377-41.8-93.377-93.368 0-1.478 0.155-2.917 0.222-4.376-0.068-1.459-0.222-2.898-0.222-4.376 0-51.567 41.81-93.368 93.377-93.368h0.058c51.577 0 93.387 41.8 93.387 93.368 0 1.478-0.155 2.917-0.222 4.376 0.068 1.449 0.222 2.898 0.222 4.376 0 51.567-41.81 93.368-93.387 93.368zM577.575 140.549h-0.058c-51.567 0-93.377-41.8-93.377-93.368 0-1.478 0.155-2.917 0.222-4.376-0.068-1.459-0.222-2.898-0.222-4.376 0-51.567 41.81-93.368 93.377-93.368h0.058c51.577 0 93.377 41.8 93.377 93.368 0 1.478-0.155 2.917-0.222 4.376 0.068 1.449 0.222 2.898 0.222 4.376 0 51.567-41.8 93.368-93.377 93.368zM898.56 140.549h-0.058c-51.577 0-93.377-41.8-93.377-93.368 0-1.478 0.145-2.917 0.213-4.376-0.068-1.459-0.213-2.898-0.213-4.376 0-51.567 41.8-93.368 93.377-93.368h0.058c51.567 0 93.377 41.8 93.377 93.368 0 1.478-0.155 2.917-0.222 4.376 0.068 1.449 0.222 2.898 0.222 4.376 0 51.567-41.81 93.368-93.377 93.368z" />
<glyph unicode="&#xe918;" glyph-name="25" horiz-adv-x="1150" d="M1111.62 305.355h-840.269v157.464h341.359v227.483h385.13v-227.483h113.79v-157.464zM1032.849 497.828v227.473h-341.369v227.483h-455.149v-227.483h-113.78v-227.473h-113.799v-227.483h1137.896v227.483h-113.799zM631.702 138.713h-108.003l-54.002-93.532 2.512-4.376-2.512-4.376 54.002-93.522h108.003l54.002 93.522-2.521 4.376 2.521 4.376zM296.12 138.713h-108.003l-54.011-93.532 2.521-4.376-2.521-4.376 54.002-93.522h108.003l54.011 93.522-2.521 4.376 2.521 4.376zM967.294 138.713h-108.022l-54.002-93.532 2.512-4.376-2.512-4.376 54.002-93.522h108.003l54.002 93.522-2.521 4.376 2.531 4.376z" />
<glyph unicode="&#xe919;" glyph-name="26" horiz-adv-x="1666" d="M53.439 258.273h160.836v321.509h160.809v321.509h593.797v-296.783h-136.069v-321.509h-482.468v-296.742h-296.905v272.015zM1500.829 307.753v321.495h-482.468v321.509h-692.756v-321.509h-160.809v-321.495h-160.836v-370.975h1657.692v370.961h-160.836z" />
<glyph unicode="&#xe91a;" glyph-name="27" horiz-adv-x="1692" d="M1521.067 228.779h115.982v-231.822h-1237.077v231.822h502.571v334.905h566.997v-334.905h51.541zM1688.604 280.32h-167.538v334.891h-502.542v334.919h-670.080v-334.891h-167.538v-334.919h-167.509v-334.905h1675.207v334.905z" />
<glyph unicode="&#xe91b;" glyph-name="28" horiz-adv-x="1119" d="M559.588 157.089h-0.057c-50.622 0-91.648-41.026-91.648-91.629 0-50.612 41.026-91.639 91.648-91.639h0.057c50.612 0 91.648 41.026 91.648 91.629 0 50.612-41.036 91.639-91.648 91.639zM874.619 157.089h-0.047c-50.622 0-91.657-41.026-91.657-91.629 0-50.612 41.036-91.639 91.657-91.639h0.047c50.622 0 91.657 41.026 91.657 91.629 0 50.612-41.036 91.639-91.657 91.639zM312.102 125.687l-133.594-133.585-109.35 109.35 157.895 157.867-157.943 157.924 267.188 267.16 109.35-109.331-157.895-157.876 157.943-157.924-133.594-133.575zM1006.279 509.554v223.27h-335.038v223.26h-446.72v-223.26h-111.692v-223.27h-111.663v-223.26h150.319l26.984-26.984-157.905-157.857 157.943-157.924 315.781 315.743-27.022 27.022h650.695v223.27h-111.692z" />
<glyph unicode="&#xe91c;" glyph-name="29" horiz-adv-x="1128" d="M508.302 154.472l-53.011-91.79 53.001-91.8h106.003l53.011 91.8-53.001 91.79zM837.67 154.472l-53.001-91.79 53.001-91.8h106.003l53.001 91.8-53.001 91.79zM313.581 121.951l-133.594-133.575-109.35 109.331 157.895 157.876-157.952 157.924 267.207 267.16 109.35-109.34-157.895-157.867 157.933-157.914-133.594-133.585zM1008.024 506.937v223.27h-335.047v223.251h-446.72v-223.26h-111.682v-134.884h-0.028v-88.358l-111.644-0.028v-223.27h148.945l28.094-28.084-157.895-157.867 157.943-157.933 315.781 315.752-28.084 28.094 0.474 0.531 0.484-0.474h651.065v223.251h-111.692z" />
<glyph unicode="&#xe91d;" glyph-name="30" horiz-adv-x="1119" d="M424.002 122.434l-133.594-133.585-109.35 109.34 157.886 157.867-157.933 157.924 267.188 267.16 109.34-109.331-157.886-157.876 157.943-157.924-133.594-133.575zM1006.573 506.463v223.26h-335.038v223.27h-446.72v-223.27h-111.682v-223.26h-111.682v-223.27h261.765l27.136-27.136-157.886-157.867 157.943-157.924 315.771 315.743-27.193 27.183h539.259v223.27h-111.682z" />
<glyph unicode="&#xe91e;" glyph-name="31" horiz-adv-x="1109" d="M886.953-55.226h221.316v221.222h-221.316zM420.131 134.957l-132.368-132.35-108.328 108.319 156.437 156.428-156.494 156.475 264.737 264.699 108.347-108.319-156.437-156.428 156.484-156.475-132.368-132.359zM1108.024 515.471h-110.658v221.212h-331.964v221.222h-442.622v-221.222h-110.667v-221.212h-110.639v-221.222h259.363l26.887-26.887-156.437-156.418 156.484-156.484 312.884 312.846-26.934 26.943h534.312v221.222z" />
<glyph unicode="&#xe91f;" glyph-name="32" horiz-adv-x="1109" d="M444.36-59.65h221.306v221.212h-221.306zM886.981-59.65h221.306v221.212h-221.306zM309.633 130.278l-132.368-132.35-108.347 108.328 156.447 156.428-156.503 156.475 264.737 264.699 108.347-108.319-156.447-156.428 156.494-156.475-132.368-132.359zM1108.297 510.793h-110.667v221.212h-331.954v221.231h-442.631v-221.212h-110.658v-221.203l-110.648-0.019v-221.212l148.574-0.009 26.896-26.887-156.447-156.428 156.494-156.484 312.884 312.846-26.943 26.943h645.092v221.222z" />
<glyph unicode="&#xe920;" glyph-name="33" horiz-adv-x="1272" d="M851.839 190.847v-214.76h-175.805v253.812h-253.93v429.519h175.805v-253.812h253.93v-214.76zM1144.821 444.659v253.823h-380.885v253.812h-507.85v-253.812h-126.965v-253.823h-126.965v-253.812h634.815v-253.823h253.93v253.823h380.885v253.812h-126.954z" />
<glyph unicode="&#xe921;" glyph-name="34" horiz-adv-x="1033" d="M339.951 109.898l141.538-0.009-0.009-141.451h-141.538v141.451zM308.493-63.002l204.436-0.017v204.349l-204.427 0.009-0.009-204.34zM685.932 345.661l-0.009-172.891h-141.538l0.009 172.9v31.449l-204.427 0.009 0.009 172.908 0.009 172.891h141.538l-0.009-172.9v-31.449l204.427-0.009-0.009-172.908zM921.834 550.001v11.377h-0.009l0.009 192.963-306.653 0.017 0.026 204.349-408.871 0.026-0.009-204.349h-102.226v-204.331h-102.226v-204.34l511.071-0.026-0.009-204.349 204.427-0.009 0.017 204.323h306.645l0.017 204.349h-102.209z" />
<glyph unicode="&#xe922;" glyph-name="35" horiz-adv-x="1157" d="M450.702-63.289h223.355v223.27h-223.355zM897.422-63.289h223.365v223.27h-223.365zM1120.787 289.185h-651.055l-130.75 130.731 92.539 92.52h130.863v223.27h446.72v-223.26h111.682v-223.27zM314.728 128.408l-133.594-133.585-109.34 109.35 157.886 157.867-157.943 157.924 267.188 267.16 109.359-109.331-157.895-157.876 157.933-157.914-133.594-133.575zM1120.787 546.788h-77.321v223.27h-369.408v188.919h-446.72v-223.27h-111.663v-223.232l-0.028-0.019h-111.663v-223.27l149.836 0.133 27.269-27.269-157.886-157.867 157.933-157.924 308.613 308.565h665.401v291.973h-34.361z" />
<glyph unicode="&#xe923;" glyph-name="36" horiz-adv-x="1109" d="M1073.293 328.953h-817.161v153.13h331.973v221.222h374.53v-221.222h110.658v-153.13zM1107.339 516.129h-110.667v221.222h-331.945v221.222h-442.64v-221.222h-110.648v-221.212h-110.667v-221.231l1106.578 0.009v221.203zM0.78 158.396v-221.222h221.306v229.742h-221.306zM443.401 158.396v-221.222h221.306v229.742h-221.306zM886.023 158.396v-221.222h221.316v229.742h-221.316z" />
<glyph unicode="&#xe924;" glyph-name="37" horiz-adv-x="1150" d="M267.931 126.599h-0.058c-51.567 0-93.377-41.81-93.377-93.377s41.81-93.368 93.377-93.368h0.058c51.577 0 93.377 41.8 93.377 93.368s-41.8 93.368-93.377 93.368zM588.916 126.599h-0.058c-51.577 0-93.377-41.81-93.377-93.377s41.8-93.368 93.377-93.368h0.058c51.567 0 93.377 41.8 93.377 93.368s-41.81 93.368-93.377 93.368zM909.901 126.599h-0.058c-51.577 0-93.387-41.81-93.387-93.377s41.81-93.368 93.387-93.368h0.058c51.567 0 93.368 41.8 93.368 93.368s-41.8 93.368-93.368 93.368zM488.245 503.161h-228.806c-0.156-0.003-0.34-0.005-0.524-0.005-15.707 0-28.44 12.733-28.44 28.44s12.733 28.44 28.44 28.44c0.184 0 0.368-0.002 0.552-0.005h228.768c0.156 0.003 0.34 0.005 0.524 0.005 15.707 0 28.44-12.733 28.44-28.44s-12.733-28.44-28.44-28.44c-0.184 0-0.368 0.002-0.552 0.005h0.028zM316.793 389.458h-57.354c-15.707 0-28.44 12.733-28.44 28.44s12.733 28.44 28.44 28.44h57.354c0.156 0.003 0.34 0.005 0.524 0.005 15.707 0 28.44-12.733 28.44-28.44s-12.733-28.44-28.44-28.44c-0.184 0-0.368 0.002-0.552 0.005h0.028zM1028.589 503.209v227.473h-341.349v227.483l-455.158-0.019v-56.88h313.305c0.156 0.003 0.34 0.005 0.524 0.005 15.707 0 28.44-12.733 28.44-28.44s-12.733-28.44-28.44-28.44c-0.184 0-0.368 0.002-0.552 0.005h-313.277v-56.9h256.155c0.221 0.006 0.481 0.010 0.741 0.010 15.707 0 28.44-12.733 28.44-28.44s-12.733-28.44-28.44-28.44c-0.261 0-0.52 0.004-0.779 0.010l0.038-0.001h-369.944v-76.104c3.902 11.27 14.413 19.224 26.785 19.253h400.311c0.156 0.003 0.34 0.005 0.524 0.005 15.707 0 28.44-12.733 28.44-28.44s-12.733-28.44-28.44-28.44c-0.184 0-0.368 0.002-0.552 0.005h-400.279c-12.376 0.029-22.886 7.983-26.728 19.054l-0.060 0.199v-132.965h-113.79v-227.483h1137.877v227.492h-113.79zM88.025 901.265c-0.221 0.006-0.481 0.010-0.741 0.010-15.707 0-28.44-12.733-28.44-28.44s12.733-28.44 28.44-28.44c0.261 0 0.52 0.004 0.779 0.010l-0.038-0.001h144.056v56.861h-144.056zM232.081 730.682v56.832h-201.197c-0.156 0.003-0.34 0.005-0.524 0.005-15.707 0-28.44-12.733-28.44-28.44s12.733-28.44 28.44-28.44c0.184 0 0.368 0.002 0.552 0.005l201.169 0.039zM116.639 645.362c0-3.236 0.657-6.289 1.642-9.177v18.355c-0.985-2.898-1.642-5.951-1.642-9.177z" />
<glyph unicode="&#xe925;" glyph-name="38" horiz-adv-x="1139" d="M528.748 129.124l-53.497-92.639 53.497-92.658h106.994l53.506 92.648-53.497 92.658zM196.302 129.124l-53.497-92.639 53.497-92.658h106.994l53.497 92.648-53.497 92.658zM861.194 129.124l-53.497-92.639 53.497-92.658h106.994l53.506 92.648-53.497 92.658zM482.553 504.023h-226.677c-0.154-0.003-0.337-0.005-0.519-0.005-15.56 0-28.174 12.614-28.174 28.174s12.614 28.174 28.174 28.174c0.183 0 0.365-0.002 0.546-0.005h226.65c0.154 0.003 0.337 0.005 0.519 0.005 15.56 0 28.174-12.614 28.174-28.174s-12.614-28.174-28.174-28.174c-0.183 0-0.365 0.002-0.546 0.005h0.027zM312.693 391.393h-56.818c-0.154-0.003-0.337-0.005-0.519-0.005-15.56 0-28.174 12.614-28.174 28.174s12.614 28.174 28.174 28.174c0.183 0 0.365-0.002 0.546-0.005h56.791c0.154 0.003 0.337 0.005 0.519 0.005 15.56 0 28.174-12.614 28.174-28.174s-12.614-28.174-28.174-28.174c-0.183 0-0.365 0.002-0.546 0.005h0.027zM1017.837 504.071v225.357h-338.169v225.347l-450.905-0.019v-56.339h310.377c0.154 0.003 0.337 0.005 0.519 0.005 15.56 0 28.174-12.614 28.174-28.174s-12.614-28.174-28.174-28.174c-0.183 0-0.365 0.002-0.546 0.005h-310.341v-56.368h253.78c0.219 0.006 0.476 0.010 0.734 0.010 15.56 0 28.174-12.614 28.174-28.174s-12.614-28.174-28.174-28.174c-0.258 0-0.516 0.003-0.772 0.010l0.038-0.001h-366.506v-75.384c3.866 11.165 14.278 19.044 26.534 19.073h396.57c0.154 0.003 0.337 0.005 0.519 0.005 15.56 0 28.174-12.614 28.174-28.174s-12.614-28.174-28.174-28.174c-0.183 0-0.365 0.002-0.546 0.005h-396.529c-12.26 0.029-22.672 7.908-26.478 18.876l-0.060 0.197v-131.732h-112.736v-225.357h1127.242v225.366h-112.726zM86.064 898.416c-0.154 0.003-0.337 0.005-0.519 0.005-15.56 0-28.174-12.614-28.174-28.174s12.614-28.174 28.174-28.174c0.183 0 0.365 0.002 0.546 0.005h142.682v56.339h-142.709zM228.773 729.428v56.291h-199.316c-0.154 0.003-0.337 0.005-0.519 0.005-15.56 0-28.174-12.614-28.174-28.174s12.614-28.174 28.174-28.174c0.183 0 0.365 0.002 0.546 0.005l199.289 0.048zM114.41 644.895c0-3.206 0.651-6.221 1.627-9.092v18.183c-0.976-2.871-1.627-5.886-1.627-9.092z" />
<glyph unicode="&#xe926;" glyph-name="39" horiz-adv-x="1059" d="M819.060 195.326h-773.199c-0.2 0.006-0.435 0.009-0.672 0.009-14.23 0-25.766-11.536-25.766-25.766s11.536-25.766 25.766-25.766c0.236 0 0.472 0.003 0.706 0.009l-0.035-0.001h773.19c0.141-0.003 0.308-0.004 0.475-0.004 14.23 0 25.766 11.536 25.766 25.766s-11.536 25.766-25.766 25.766c-0.167 0-0.334-0.002-0.5-0.005h0.025zM870.584 92.269c-0.141 0.003-0.308 0.004-0.475 0.004-14.23 0-25.766-11.536-25.766-25.766s11.536-25.766 25.766-25.766c0.167 0 0.334 0.002 0.5 0.005h154.625c0.141-0.003 0.308-0.004 0.475-0.004 14.23 0 25.766 11.536 25.766 25.766s-11.536 25.766-25.766 25.766c-0.167 0-0.334-0.002-0.5-0.005h-154.625zM638.643 66.521c0 14.23-11.536 25.766-25.766 25.766v0h-567.016c-0.141 0.003-0.308 0.004-0.475 0.004-14.23 0-25.766-11.536-25.766-25.766s11.536-25.766 25.766-25.766c0.167 0 0.334 0.002 0.5 0.005h566.991c14.227 0 25.761 11.531 25.766 25.757v0zM1025.225-10.787h-773.164c-0.2 0.006-0.435 0.009-0.672 0.009-14.23 0-25.766-11.536-25.766-25.766s11.536-25.766 25.766-25.766c0.236 0 0.472 0.003 0.706 0.009l-0.035-0.001h773.181c0.141-0.003 0.308-0.004 0.475-0.004 14.23 0 25.766 11.536 25.766 25.766s-11.536 25.766-25.766 25.766c-0.167 0-0.334-0.002-0.5-0.005h0.025zM237.069 487.673h51.97c14.025-0.267 25.291-11.699 25.291-25.762s-11.267-25.495-25.267-25.762h-51.995c-0.141-0.003-0.308-0.004-0.475-0.004-14.23 0-25.766 11.536-25.766 25.766s11.536 25.766 25.766 25.766c0.167 0 0.334-0.002 0.5-0.005h-0.025zM237.069 590.686h207.303c0.141 0.003 0.308 0.004 0.475 0.004 14.23 0 25.766-11.536 25.766-25.766s-11.536-25.766-25.766-25.766c-0.167 0-0.334 0.002-0.5 0.005h-207.278c-0.141-0.003-0.308-0.004-0.475-0.004-14.23 0-25.766 11.536-25.766 25.766s11.536 25.766 25.766 25.766c0.167 0 0.334-0.002 0.5-0.005h-0.025zM6.1 539.197v-206.087h1030.914v206.087h-103.1v206.095h-309.274v206.087l-412.357-0.018v-51.524h283.858c0.141 0.003 0.308 0.004 0.475 0.004 14.23 0 25.766-11.536 25.766-25.766s-11.536-25.766-25.766-25.766c-0.167 0-0.334 0.002-0.5 0.005h-283.833v-51.541h232.089c0.141 0.003 0.308 0.004 0.475 0.004 14.23 0 25.766-11.536 25.766-25.766s-11.536-25.766-25.766-25.766c-0.167 0-0.334 0.002-0.5 0.005h-335.147v-68.941c3.533 10.212 13.057 17.419 24.267 17.443h362.674c0.141 0.003 0.308 0.004 0.475 0.004 14.23 0 25.766-11.536 25.766-25.766s-11.536-25.766-25.766-25.766c-0.167 0-0.334 0.002-0.5 0.005h-362.646c-11.213 0.024-20.737 7.231-24.215 17.263l-0.054 0.18v-120.473h-103.1zM81.771 899.838c-0.141 0.003-0.308 0.004-0.475 0.004-14.23 0-25.766-11.536-25.766-25.766s11.536-25.766 25.766-25.766c0.167 0 0.334 0.002 0.5 0.005h130.487v51.524h-130.512zM212.283 745.293v51.48h-182.263c-0.141 0.003-0.308 0.004-0.475 0.004-14.23 0-25.766-11.536-25.766-25.766s11.536-25.766 25.766-25.766c0.167 0 0.334 0.002 0.5 0.005l182.247 0.044zM107.704 667.985c0-2.932 0.595-5.689 1.488-8.315v16.629c-0.893-2.626-1.488-5.383-1.488-8.315z" />
<glyph unicode="&#xe927;" glyph-name="40" horiz-adv-x="931" d="M56.956 860.625h826.337c25.222 0 45.669 20.447 45.669 45.669s-20.447 45.669-45.669 45.669v0h-826.352c-0.25 0.005-0.546 0.008-0.842 0.008-25.226 0-45.677-20.45-45.677-45.677s20.45-45.677 45.677-45.677c0.296 0 0.591 0.003 0.886 0.008l-0.044-0.001zM883.278 769.288h-734.549c-0.25 0.005-0.546 0.008-0.842 0.008-25.226 0-45.677-20.45-45.677-45.677s20.45-45.677 45.677-45.677c0.296 0 0.591 0.003 0.886 0.008l-0.044-0.001h734.549c24.862 0.473 44.835 20.738 44.835 45.669s-19.973 45.196-44.791 45.668l-0.044 0.001zM837.198 540.905c-0.009 25.22-20.456 45.661-45.677 45.661h-734.58c-0.25 0.005-0.546 0.008-0.842 0.008-25.226 0-45.677-20.45-45.677-45.677s20.45-45.677 45.677-45.677c0.296 0 0.591 0.003 0.886 0.008l-0.044-0.001h734.565c25.22 0.009 45.661 20.456 45.661 45.677v0zM883.278 403.937h-642.917c-0.25 0.005-0.546 0.008-0.842 0.008-25.226 0-45.677-20.45-45.677-45.677s20.45-45.677 45.677-45.677c0.296 0 0.591 0.003 0.886 0.008l-0.044-0.001h642.917c24.862 0.473 44.835 20.738 44.835 45.669s-19.973 45.196-44.791 45.668l-0.044 0.001zM791.505 221.231h-367.476c-0.25 0.005-0.546 0.008-0.842 0.008-25.226 0-45.677-20.45-45.677-45.677s20.45-45.677 45.677-45.677c0.296 0 0.591 0.003 0.886 0.008l-0.044-0.001h367.476c0.25-0.005 0.546-0.008 0.842-0.008 25.226 0 45.677 20.45 45.677 45.677s-20.45 45.677-45.677 45.677c-0.296 0-0.591-0.003-0.886-0.008l0.044 0.001zM516.143 38.633h-92.113c-0.25 0.005-0.546 0.008-0.842 0.008-25.226 0-45.677-20.45-45.677-45.677s20.45-45.677 45.677-45.677c0.296 0 0.591 0.003 0.886 0.008l-0.044-0.001h92.113c24.862 0.473 44.835 20.738 44.835 45.669s-19.973 45.196-44.791 45.668l-0.044 0.001z" />
<glyph unicode="&#xe928;" glyph-name="41" horiz-adv-x="693" d="M548.409 427.148c1.522 3.502 2.408 7.582 2.408 11.868 0 14.627-10.313 26.845-24.064 29.78l-0.2 0.036 62.64 62.65c10.648 2.838 18.867 11.054 21.663 21.488l0.048 0.212 77.969 77.958-142.822 142.812h35.488c0.167-0.003 0.364-0.005 0.561-0.005 16.818 0 30.451 13.633 30.451 30.451s-13.633 30.451-30.451 30.451c-0.197 0-0.394-0.002-0.591-0.006h-489.66c-0.167 0.003-0.364 0.005-0.561 0.005-16.818 0-30.451-13.633-30.451-30.451s13.633-30.451 30.451-30.451c0.197 0 0.394 0.002 0.591 0.006h395.235l-60.923-60.923h-395.533c-0.236 0.007-0.515 0.010-0.794 0.010-16.818 0-30.451-13.633-30.451-30.451s13.633-30.451 30.451-30.451c0.279 0 0.557 0.004 0.835 0.011l-0.041-0.001h334.62l-60.871-60.881h-151.48c-16.815 0-30.446-13.631-30.446-30.446s13.631-30.446 30.446-30.446h90.588l-71.432-71.411 111.254-111.233h-7.964c-0.167 0.003-0.364 0.005-0.561 0.005-16.818 0-30.451-13.633-30.451-30.451s13.633-30.451 30.451-30.451c0.197 0 0.394 0.002 0.591 0.006h61.39c2.286 0 4.51 0.3 6.661 0.776l0.931-0.931-172.249-172.218 172.301-172.291 344.488 344.467-140.516 140.505zM30.658 895.736h550.891c0.167-0.003 0.364-0.005 0.561-0.005 16.818 0 30.451 13.633 30.451 30.451s-13.633 30.451-30.451 30.451c-0.197 0-0.394-0.002-0.591-0.006h-550.873c-0.167 0.003-0.364 0.005-0.561 0.005-16.818 0-30.451-13.633-30.451-30.451s13.633-30.451 30.451-30.451c0.197 0 0.394 0.002 0.591 0.006h-0.029z" />
<glyph unicode="&#xe929;" glyph-name="42" horiz-adv-x="1697" d="M1688.007 509.279c0.019 140.838-114.185 255.118-255.080 255.185v-0.066c-140.857 0.019-255.147-114.176-255.223-255.052h111.654c0.076 79.218 64.351 143.426 143.569 143.417v0.076c79.227-0.085 143.436-64.351 143.436-143.559h0.066c-0.076-79.218-64.351-143.426-143.569-143.417h-887.618v-111.635l893.44 0.152c138.164 3.091 249.325 115.977 249.401 254.9h-0.076zM431.246 258.901l-267.188-267.16-109.34 109.331 157.876 157.886-157.933 157.914 267.188 267.16 109.35-109.34-157.895-157.876 157.943-157.914zM244.556 766.957v154.548h154.643v-154.548h-154.643zM579.603 698.245h111.682v223.279h377.998v-154.548h-111.682v-223.27h-377.998v154.548zM414.436 509.345h577.527v223.27h111.682v223.27h-893.449v-223.27h-111.673v-223.27h0.038l-92.492-92.473 157.943-157.933-157.886-157.867 157.933-157.924 315.781 315.733-157.933 157.924 92.539 92.539z" />
<glyph unicode="&#xe92a;" glyph-name="43" horiz-adv-x="1688" d="M1687.789 504.311c0.009 140.838-114.195 255.118-255.080 255.194v-0.076c-140.857 0.019-255.147-114.176-255.223-255.052h111.654c0.076 79.218 64.351 143.417 143.569 143.417v0.076c79.227-0.085 143.436-64.351 143.426-143.559h0.076c-0.076-79.218-64.351-143.426-143.578-143.417h-887.609v-111.625l893.44 0.152c138.164 3.091 249.325 115.977 249.391 254.9h-0.066zM431.91 253.933l-267.188-267.16-109.34 109.331 157.886 157.876-157.933 157.924 267.179 267.16 109.35-109.34-157.895-157.876 157.943-157.914zM415.109 504.377h576.635v223.27h-111.682v223.27h-446.72v-223.27h-335.038v-223.27h0.92l-92.492-92.473 157.943-157.924-157.886-157.867 157.933-157.933 315.781 315.743-157.933 157.924 92.539 92.539z" />
<glyph unicode="&#xe92b;" glyph-name="44" horiz-adv-x="1697" d="M1688.453 509.279c0.019 140.838-114.185 255.118-255.071 255.185v-0.066c-140.866 0.019-255.156-114.176-255.232-255.052h111.654c0.076 79.218 64.351 143.426 143.578 143.417v0.076c79.218-0.085 143.426-64.351 143.417-143.559h0.076c-0.076-79.218-64.351-143.426-143.569-143.417h-887.618v-111.635l893.44 0.152c138.164 3.091 249.325 115.977 249.391 254.9h-0.066zM431.692 258.901l-267.188-267.15-109.35 109.321 157.895 157.886-157.943 157.914 267.188 267.16 109.35-109.34-157.886-157.876 157.933-157.914zM691.731 698.254v223.27h377.998v-154.548h-111.682v-223.27h-377.998v154.548h111.682zM414.891 509.345h577.517v223.27h111.682v223.27h-670.085v-223.27h-335.038v-223.27h0.038l-92.492-92.473 157.943-157.933-157.895-157.867 157.943-157.924 315.781 315.733-157.933 157.924 92.539 92.539z" />
<glyph unicode="&#xe92c;" glyph-name="45" horiz-adv-x="1697" d="M1688.083 504.311c0.009 140.838-114.195 255.118-255.080 255.185v-0.066c-140.857 0.019-255.147-114.176-255.223-255.052h111.644c0.076 79.218 64.351 143.417 143.578 143.417v0.076c79.227-0.085 143.436-64.351 143.426-143.559h0.076c-0.076-79.218-64.36-143.426-143.578-143.417h-887.618v-111.625l893.449 0.152c138.155 3.091 249.325 115.977 249.391 254.9h-0.076zM432.204 253.933l-267.188-267.16-109.35 109.331 157.895 157.876-157.943 157.924 267.188 267.15 109.35-109.321-157.895-157.876 157.943-157.924zM244.622 762.008v154.548h154.643v-154.548h-154.643zM415.384 504.377h576.645v223.27h-111.692v223.27h-670.056v-223.27h-111.692v-223.27h0.929l-92.492-92.473 157.943-157.924-157.895-157.867 157.943-157.933 315.781 315.743-157.952 157.943 92.539 92.52z" />
<glyph unicode="&#xe92d;" glyph-name="46" horiz-adv-x="2110" d="M595.98 281.3h294.175c185.531-0.025 336.047 150.378 336.147 335.922h-0.087c0.012 185.481-150.403 335.997-335.959 336.084v-0.1c-185.519 0.050-336.047-150.353-336.147-335.897h147.044c0.112 104.336 84.767 188.891 189.103 188.878v0.1c104.348-0.1 188.916-84.742 188.903-189.065h0.1c-0.1-104.348-84.755-188.903-189.103-188.891h-882.538v-147.044h588.363zM2101.173 281.2h-0.087c0.012 185.506-150.403 336.022-335.959 336.109v-0.1c-185.519 0.025-336.047-150.378-336.147-335.909h147.044c0.112 104.336 84.767 188.891 189.103 188.878v0.1c104.348-0.1 188.916-84.742 188.903-189.065h0.1c-0.1-104.348-84.755-188.903-189.103-188.891h-1757.409v-147.031l1765.101 0.187c181.972 4.071 328.379 152.763 328.467 335.722z" />
<glyph unicode="&#xe92e;" glyph-name="47" horiz-adv-x="2307" d="M8.643 304.777h1286.554v321.522h-160.795v321.495h-643.29v-321.509h-482.468v-321.495zM2297.501 304.681c0.027 202.82-164.427 367.37-367.302 367.479v-0.109c-202.848 0.027-367.411-164.413-367.52-367.275h160.877c0 114.115 92.515 206.63 206.643 206.63 114.087-0.109 206.548-92.665 206.534-206.725h0.109c-0.123-114.074-92.679-206.52-206.752-206.52h-1921.447v-160.741l1929.858 0.205c198.943 4.451 359.028 167.008 359.124 367.056h-0.109z" />
<glyph unicode="&#xe92f;" glyph-name="48" horiz-adv-x="2307" d="M862.549 576.819v321.495h544.317v-222.549h-160.823v-321.509h-544.317v222.549h160.823zM652.247 304.777h643.277v321.509h160.823v321.509h-964.922v-321.509h-482.454v-321.495h643.277zM2297.829 304.681c0.027 202.82-164.441 367.37-367.316 367.479v-0.109c-202.834 0.027-367.411-164.413-367.52-367.275h160.768c0.123 114.074 92.679 206.534 206.752 206.52v0.109c114.087-0.109 206.548-92.665 206.534-206.725h0.109c-0.109-114.074-92.665-206.52-206.752-206.52h-1921.434v-160.741l1929.83 0.205c198.956 4.451 359.028 167.021 359.124 367.056h-0.096z" />
</font>
</defs>
</svg>
