<?xml version="1.0" standalone="no"?>
<!DOCTYPE svg PUBLIC "-//W3C//DTD SVG 1.1//EN" "http://www.w3.org/Graphics/SVG/1.1/DTD/svg11.dtd" >
<svg xmlns="http://www.w3.org/2000/svg">
<metadata>Generated by IcoMoon</metadata>
<defs>
<font id="gonicon-arrow-line" horiz-adv-x="1024">
<font-face units-per-em="1024" ascent="960" descent="-64" />
<missing-glyph horiz-adv-x="1024" />
<glyph unicode="&#x20;" horiz-adv-x="512" d="" />
<glyph unicode="&#xe900;" glyph-name="circle-down" d="M512 198.368c-0.033 0-0.072 0-0.11 0-25.831 0-49.212 10.487-66.118 27.436l-215.287 215.287c-38.87 38.863-38.87 101.895 0 140.765 17.97 18.004 42.814 29.142 70.259 29.142 0.046 0 0.092 0 0.138 0h-0.007c0.042 0 0.091 0 0.14 0 27.433 0 52.265-11.139 70.219-29.14l131.2-131.2c2.448-2.454 5.834-3.973 9.574-3.973s7.125 1.518 9.573 3.972v0l131.184 131.184c17.959 18.012 42.797 29.156 70.238 29.156 0.043 0 0.087 0 0.13 0h-0.007c25.481 0 50.948-9.714 70.389-29.156 38.87-38.87 38.87-101.888 0-140.751l-215.285-215.285c-16.908-16.951-40.289-27.438-66.12-27.438-0.039 0-0.078 0-0.117 0h0.006zM512 960c-282.764 0-512-229.236-512-512s229.236-512 512-512c282.778 0 512 229.236 512 512s-229.222 512-512 512zM314.936 300.341v-0.014l102.681-102.688c24.017-24.149 57.267-39.095 94.008-39.095 0.132 0 0.264 0 0.396 0.001h-0.021c0.109 0 0.238-0.001 0.366-0.001 36.748 0 70.005 14.945 94.025 39.089l215.291 215.298c25.207 25.085 40.806 59.805 40.806 98.168 0 0.132 0 0.263-0.001 0.395v-0.020c0 0.111 0.001 0.243 0.001 0.374 0 38.363-15.599 73.083-40.801 98.163l-0.006 0.006c-25.077 25.203-59.788 40.799-98.141 40.799-0.146 0-0.292 0-0.438-0.001h0.023c-0.116 0-0.252 0.001-0.389 0.001-38.354 0-73.065-15.6-98.133-40.8l-112.604-112.611-112.598 112.598c-25.078 25.215-59.796 40.82-98.159 40.82-0.13 0-0.26 0-0.39-0.001h0.020c-0.119 0-0.26 0.001-0.401 0.001-38.357 0-73.070-15.605-98.135-40.814l-0.007-0.007c-54.335-54.335-54.335-142.729 0-197.078l112.605-112.584zM512 920.176c63.755 0 125.594-12.47 183.78-37.081 58.356-25.025 108.175-59.171 150.098-101.198l0.010-0.010c42.038-41.932 76.185-91.751 100.035-147.053l1.172-3.055c24.611-58.186 37.081-120.018 37.081-183.78 0-63.755-12.47-125.594-37.081-183.794-25.023-58.352-59.17-108.167-101.198-150.083l-0.010-0.010c-41.929-42.041-91.749-76.189-147.053-100.036l-3.055-1.172c-58.186-24.611-120.018-37.081-183.78-37.081-63.755 0-125.58 12.47-183.78 37.081-58.358 25.019-108.178 59.166-150.097 101.197l-0.010 0.010c-42.028 41.933-76.173 91.745-100.034 147.036l-1.174 3.057c-24.611 58.2-37.081 120.039-37.081 183.794s12.47 125.594 37.081 183.78c25.034 58.353 59.179 108.17 101.199 150.099l0.008 0.008c41.932 42.036 91.751 76.183 147.052 100.035l3.055 1.173c58.2 24.611 120.025 37.081 183.78 37.081z" />
<glyph unicode="&#xe901;" glyph-name="circle-left" d="M364.341 588.751l140.765 140.765c17.957 18.008 42.791 29.149 70.228 29.149 0.047 0 0.094 0 0.141 0h-0.007c25.481 0 50.948-9.721 70.389-29.149 38.863-38.884 38.863-101.895 0-140.765l-131.198-131.184c-2.447-2.451-3.961-5.836-3.961-9.574s1.513-7.122 3.961-9.574v0l131.184-131.184c38.877-38.87 38.877-101.881 0-140.751-17.967-18.008-42.809-29.149-70.254-29.149-0.043 0-0.085 0-0.128 0h0.007c-0.036 0-0.079 0-0.121 0-27.445 0-52.288 11.141-70.252 29.147l-215.302 215.287c-36.569 36.576-36.569 95.877 0 132.461l74.549 74.521zM512 960c-282.764 0-512-229.236-512-512s229.236-512 512-512 512 229.236 512 512-229.236 512-512 512zM363.478 644.222v0.014l-101.839-101.853c-52.042-52.042-52.042-136.718 0-188.767l215.3-215.285c25.070-25.215 59.782-40.82 98.138-40.82 0.137 0 0.274 0 0.411 0.001h-0.021c0.113 0 0.247-0.001 0.381-0.001 38.364 0 73.083 15.605 98.156 40.814l0.006 0.006c25.202 25.066 40.799 59.768 40.799 98.112 0 0.147 0 0.293-0.001 0.439v-0.023c0 0.119 0.001 0.26 0.001 0.4 0 38.355-15.6 73.067-40.8 98.136l-112.604 112.59 112.598 112.612c54.335 54.335 54.335 142.729 0 197.071-25.071 25.215-59.784 40.82-98.141 40.82-0.141 0-0.282 0-0.423-0.001h0.022c-0.108 0-0.235 0-0.363 0-38.363 0-73.081-15.605-98.153-40.814l-113.467-113.453zM512 920.176c63.755 0 125.594-12.47 183.78-37.081 56.229-23.783 106.713-57.849 150.093-101.208 42.043-41.928 76.19-91.748 100.036-147.053l1.172-3.054c24.611-58.186 37.102-120.018 37.102-183.78 0-63.755-12.491-125.594-37.102-183.794-23.776-56.215-57.835-106.713-101.208-150.093-41.925-42.041-91.74-76.188-147.039-100.036l-3.054-1.172c-58.186-24.611-120.018-37.081-183.78-37.081-63.755 0-125.608 12.47-183.78 37.081-58.358 25.019-108.178 59.166-150.097 101.197l-0.010 0.010c-43.373 43.38-77.431 93.878-101.208 150.093-24.611 58.2-37.102 120.039-37.102 183.794s12.491 125.594 37.102 183.78c25.017 58.359 59.165 108.179 101.197 150.097l0.011 0.010c41.932 42.036 91.751 76.183 147.052 100.035l3.055 1.173c58.172 24.611 120.025 37.081 183.78 37.081z" />
<glyph unicode="&#xe902;" glyph-name="circle-left-down" d="M401.717 244.049c-51.733 0-93.668 41.935-93.668 93.668v304.458c0 54.966 44.572 99.538 99.538 99.538s99.538-44.572 99.538-99.538v-185.533c0.004-7.47 6.059-13.525 13.529-13.529h185.52c54.966 0 99.538-44.558 99.538-99.538 0-54.966-44.572-99.524-99.538-99.524h-304.458zM512 960c-131.044 0-262.074-49.98-362.047-149.967-199.94-199.947-199.94-524.12 0-724.066 99.973-99.987 231.003-149.967 362.047-149.967 131.037 0 262.067 49.98 362.040 149.967 199.947 199.947 199.947 524.12 0 724.066-99.973 99.987-231.003 149.967-362.040 149.967zM268.239 482.935h-0.014v-145.219c0-73.609 59.883-133.492 133.492-133.492h304.465c76.849 0 139.362 62.527 139.362 139.348 0 76.856-62.513 139.362-139.362 139.362h-159.239v159.239c0 76.849-62.52 139.362-139.362 139.362-76.835 0-139.348-62.513-139.348-139.362v-159.246zM512 920.176c0.193 0 0.422 0 0.651 0 63.825 0 124.682-12.703 180.183-35.718l-3.121 1.147c58.55-23.741 111.083-58.635 156.174-103.719 45.077-45.098 79.97-97.645 103.733-156.195 21.86-52.362 34.557-113.199 34.557-177.001 0-0.243 0-0.486-0.001-0.729v0.038c0-61.342-11.629-121.127-34.571-177.692-23.755-58.55-58.649-111.097-103.726-156.195-45.091-45.070-97.631-79.977-156.174-103.719-52.385-21.873-113.248-34.578-177.080-34.578-0.22 0-0.44 0-0.66 0h0.034c-0.183 0-0.399 0-0.615 0-63.835 0-124.702 12.705-180.211 35.725l3.121-1.147c-58.55 23.741-111.090 58.649-156.181 103.719-45.077 45.098-79.984 97.645-103.726 156.195-22.949 56.565-34.571 116.35-34.571 177.692s11.622 121.141 34.578 177.692c23.734 58.55 58.642 111.097 103.719 156.195 45.098 45.084 97.631 79.977 156.181 103.719 52.388 21.873 113.256 34.578 177.091 34.578 0.216 0 0.433 0 0.649 0h-0.034z" />
<glyph unicode="&#xe903;" glyph-name="circle-left-up" d="M407.58 154.301c-54.966 0-99.524 44.558-99.524 99.524v304.472c0 51.719 41.921 93.668 93.654 93.668l304.472-0.014c54.966 0 99.538-44.558 99.538-99.524 0-54.987-44.572-99.538-99.538-99.538h-185.533c-0.002 0-0.005 0-0.007 0-7.468 0-13.522-6.054-13.522-13.522 0-0.002 0-0.005 0-0.007v0-185.533c0-54.966-44.572-99.524-99.538-99.524zM512.007 960c-131.044 0-262.074-49.98-362.047-149.953-199.947-199.947-199.947-524.12 0-724.080 99.973-99.973 231.003-149.967 362.040-149.967 131.030 0 262.060 49.994 362.033 149.967 199.947 199.961 199.947 524.134 0 724.080-99.966 99.973-230.996 149.953-362.026 149.953zM407.58 114.485c76.856 0 139.362 62.506 139.362 139.341v159.246h159.239c76.849 0 139.362 62.52 139.362 139.362 0 76.835-62.513 139.348-139.362 139.348l-304.472 0.014c-73.595 0-133.471-59.883-133.471-133.492v-304.465c0-76.842 62.506-139.348 139.341-139.348zM512.007 920.19c61.342 0 121.127-11.629 177.692-34.571 58.55-23.741 111.097-58.649 156.181-103.733 45.084-45.077 79.977-97.631 103.733-156.181 21.873-52.383 34.578-113.245 34.578-177.074 0-0.217 0-0.434 0-0.652v0.034c0-0.186 0-0.407 0-0.628 0-63.831-12.705-124.694-35.725-180.199l1.147 3.12c-23.755-58.55-58.649-111.090-103.733-156.181-45.077-45.084-97.631-79.977-156.181-103.733-52.397-21.873-113.273-34.578-177.117-34.578-0.203 0-0.405 0-0.608 0h0.032c-61.356 0-121.127 11.65-177.706 34.578-58.55 23.755-111.097 58.649-156.181 103.733-45.084 45.098-79.977 97.631-103.733 156.181-21.873 52.385-34.578 113.248-34.578 177.078 0 0.221 0 0.441 0 0.662v-0.034c0 0.183 0 0.401 0 0.618 0 63.829 12.705 124.691 35.725 180.194l-1.147-3.12c23.755 58.55 58.649 111.097 103.733 156.181 45.077 45.084 97.631 79.991 156.181 103.733 52.385 21.873 113.248 34.578 177.078 34.578 0.218 0 0.437 0 0.655 0h-0.034z" />
<glyph unicode="&#xe904;" glyph-name="circle-right" d="M448.526 137.335c-0.036 0-0.078 0-0.12 0-27.448 0-52.293 11.141-70.261 29.147l-0.002 0.002c-38.863 38.87-38.863 101.895 0 140.765l131.191 131.184c2.453 2.446 3.971 5.829 3.971 9.567s-1.518 7.121-3.971 9.566v0l-131.191 131.184c-38.856 38.87-38.856 101.895 0 140.765 17.966 18.008 42.807 29.149 70.251 29.149 0.049 0 0.097 0 0.146 0h-0.008c25.467 0 50.94-9.707 70.375-29.149l215.285-215.285c36.583-36.576 36.583-95.877 0-132.461l-215.285-215.285c-17.975-18.008-42.825-29.149-70.277-29.149-0.039 0-0.079 0-0.118 0h0.006zM512 960c-282.764 0-512-229.222-512-512 0-282.764 229.236-512 512-512s512 229.236 512 512c0 282.778-229.236 512-512 512zM462.596 448l-112.612-112.598c-54.335-54.335-54.335-142.75 0-197.071 25.083-25.215 59.806-40.82 98.173-40.82 0.13 0 0.26 0 0.389 0.001h-0.020c0.109 0 0.237 0 0.366 0 38.368 0 73.092 15.605 98.17 40.814l215.291 215.277c52.042 52.063 52.042 136.732 0 188.781l-215.285 215.3c-25.088 25.207-59.811 40.806-98.177 40.806-0.129 0-0.257 0-0.385-0.001h0.020c-0.115 0-0.25 0.001-0.386 0.001-38.36 0-73.076-15.599-98.151-40.801l-0.006-0.006c-54.328-54.356-54.328-142.75 0-197.085l112.619-112.598zM512 920.176c63.755 0 125.594-12.47 183.794-37.081 58.35-25.027 108.164-59.173 150.083-101.198l0.010-0.010c42.041-41.929 76.189-91.749 100.036-147.053l1.172-3.055c24.611-58.186 37.081-120.018 37.081-183.78 0-63.755-12.47-125.594-37.081-183.78-25.019-58.358-59.166-108.178-101.197-150.097l-0.010-0.010c-41.928-42.034-91.742-76.181-147.037-100.034l-3.056-1.173c-58.2-24.611-120.032-37.081-183.794-37.081-63.776 0-125.594 12.47-183.78 37.081-58.357 25.023-108.176 59.17-150.098 101.198l-0.009 0.009c-42.041 41.929-76.189 91.749-100.036 147.053l-1.172 3.055c-24.611 58.186-37.081 120.025-37.081 183.78s12.47 125.594 37.081 183.78c25.019 58.358 59.166 108.178 101.197 150.097l0.010 0.010c41.932 42.038 91.751 76.185 147.053 100.035l3.055 1.172c58.186 24.611 120.004 37.081 183.78 37.081z" />
<glyph unicode="&#xe905;" glyph-name="circle-right-down" d="M317.826 244.063c-54.966 0-99.524 44.558-99.524 99.524 0 54.987 44.558 99.538 99.524 99.538h185.533c0.002 0 0.005 0 0.007 0 7.468 0 13.522 6.054 13.522 13.522 0 0.002 0 0.005 0 0.007v0 185.512c0 54.987 44.572 99.545 99.531 99.545 54.966 0 99.538-44.558 99.538-99.538v-304.458c0-51.719-41.942-93.654-93.661-93.654h-304.465zM512 960c-131.030 0-262.060-49.98-362.033-149.953-199.961-199.947-199.961-524.134 0-724.080 99.973-99.973 231.003-149.967 362.033-149.967s262.060 49.994 362.047 149.967c199.94 199.947 199.94 524.134 0 724.080-99.994 99.973-231.024 149.953-362.047 149.953zM477.065 482.949h-159.239c-76.835 0-139.341-62.506-139.341-139.362 0-76.835 62.506-139.348 139.341-139.348h304.472c73.588 0 133.471 59.869 133.471 133.478v304.458c0 76.849-62.506 139.362-139.348 139.362-76.849 0-139.362-62.513-139.362-139.362v-159.225zM511.993 920.19c61.349 0 121.127-11.629 177.713-34.578 58.543-23.748 111.097-58.635 156.174-103.733 45.091-45.070 79.984-97.624 103.733-156.174 21.873-52.4 34.578-113.281 34.578-177.129 0-0.198 0-0.396 0-0.595v0.032c0-61.356-11.65-121.141-34.578-177.706-23.748-58.55-58.642-111.097-103.733-156.181-45.077-45.084-97.631-79.977-156.174-103.733-52.387-21.873-113.253-34.578-177.087-34.578-0.218 0-0.436 0-0.653 0h0.034c-0.187 0-0.409 0-0.63 0-63.825 0-124.683 12.705-180.181 35.724l3.119-1.146c-58.55 23.755-111.083 58.649-156.174 103.733-45.098 45.077-79.998 97.631-103.733 156.181-21.873 52.381-34.578 113.241-34.578 177.069 0 0.224 0 0.448 0 0.672v-0.035c0 0.183 0 0.401 0 0.618 0 63.829 12.705 124.691 35.725 180.194l-1.147-3.12c23.734 58.55 58.635 111.097 103.733 156.181 45.091 45.084 97.624 79.977 156.174 103.719 52.368 21.877 113.214 34.585 177.029 34.585 0.233 0 0.466 0 0.7-0.001h-0.036z" />
<glyph unicode="&#xe906;" glyph-name="circle-right-up" d="M317.826 452.889c-54.966 0-99.524 44.558-99.524 99.524 0 54.98 44.558 99.538 99.524 99.538h304.465c51.726 0 93.654-41.935 93.654-93.668v-304.458c0-54.966-44.558-99.538-99.538-99.538-54.959 0-99.524 44.572-99.524 99.538v185.533c-0.004 7.468-6.055 13.521-13.522 13.529h-185.534zM512 960c-131.030 0-262.060-49.98-362.033-149.953-199.961-199.961-199.961-524.134 0-724.080 99.973-99.973 231.003-149.967 362.033-149.967s262.060 49.994 362.047 149.967c199.94 199.947 199.94 524.12 0 724.080-99.994 99.973-231.024 149.953-362.047 149.953zM317.826 413.065h159.246v-159.239c0-76.835 62.506-139.362 139.341-139.362 76.856 0 139.362 62.527 139.362 139.362v304.458c0 73.609-59.883 133.492-133.471 133.492h-304.465c-76.842 0-139.348-62.513-139.348-139.362 0-76.842 62.506-139.348 139.341-139.348zM512 920.19c0.184 0 0.401 0 0.618 0 63.834 0 124.701-12.705 180.209-35.725l-3.121 1.147c58.543-23.748 111.097-58.635 156.174-103.733 45.091-45.084 79.984-97.624 103.733-156.174 21.873-52.404 34.578-113.29 34.578-177.143 0-0.198 0-0.396 0-0.594v0.030c0-61.342-11.65-121.127-34.578-177.692-23.748-58.55-58.642-111.097-103.733-156.195-45.077-45.070-97.631-79.977-156.174-103.719-52.387-21.873-113.253-34.578-177.087-34.578-0.218 0-0.436 0-0.653 0h0.034c-0.187 0-0.409 0-0.63 0-63.825 0-124.683 12.705-180.181 35.724l3.119-1.146c-58.55 23.741-111.097 58.649-156.174 103.719-45.098 45.098-79.998 97.645-103.733 156.195-21.877 52.385-34.585 113.249-34.585 177.082 0 0.214 0 0.429 0 0.643v-0.033c0 0.184 0 0.401 0 0.618 0 63.834 12.705 124.701 35.725 180.209l-1.147-3.121c23.734 58.55 58.635 111.090 103.733 156.181 45.077 45.084 97.624 79.977 156.174 103.719 52.385 21.877 113.249 34.585 177.082 34.585 0.217 0 0.434 0 0.651 0h-0.033z" />
<glyph unicode="&#xe907;" glyph-name="circle-up" d="M300.874 285.002c-0.037 0-0.081 0-0.125 0-27.449 0-52.296 11.144-70.262 29.154l-0.002 0.002c-38.856 38.87-38.856 101.888 0 140.751l215.285 215.285c16.908 16.951 40.289 27.438 66.12 27.438 0.039 0 0.078 0 0.117 0h-0.006c23.966 0 47.946-9.146 66.23-27.438l215.285-215.285c38.87-38.863 38.87-101.895 0-140.765-17.956-18.003-42.788-29.142-70.221-29.142-0.054 0-0.109 0-0.163 0h0.009c-0.046 0-0.1 0-0.154 0-27.433 0-52.265 11.139-70.219 29.14l-131.2 131.2c-2.444 2.448-5.823 3.963-9.555 3.963-0.004 0-0.008 0-0.012 0h0.001c-3.472 0-6.923-1.319-9.567-3.963l-131.184-131.184c-17.964-18.012-42.807-29.156-70.252-29.156-0.043 0-0.086 0-0.13 0h0.007zM512 960c-282.764 0-512-229.236-512-512s229.236-512 512-512 512 229.236 512 512-229.236 512-512 512zM300.874 245.178c0.11 0 0.239 0 0.369 0 38.368 0 73.090 15.605 98.168 40.814l112.59 112.59 112.598-112.598c25.085-25.207 59.805-40.806 98.168-40.806 0.132 0 0.263 0 0.395 0.001h-0.020c0.114 0 0.249-0.001 0.384-0.001 38.356 0 73.068 15.6 98.139 40.8l0.006 0.006c25.215 25.083 40.82 59.806 40.82 98.173 0 0.13 0 0.26-0.001 0.389v-0.020c0 0.114 0.001 0.248 0.001 0.382 0 38.361-15.605 73.077-40.814 98.147l-215.27 215.306c-24.034 24.15-57.299 39.095-94.054 39.095-0.123 0-0.246 0-0.369-0.001h0.019c-0.105 0-0.229 0-0.352 0-36.748 0-70.005-14.945-94.025-39.089l-215.305-215.297c-54.321-54.349-54.321-142.743 0.014-197.085 25.076-25.215 59.792-40.82 98.153-40.82 0.137 0 0.274 0 0.411 0.001h-0.021zM512 920.183c63.755 0 125.608-12.47 183.78-37.081 58.356-25.025 108.175-59.171 150.098-101.198l0.010-0.010c42.043-41.928 76.19-91.748 100.036-147.053l1.172-3.054c24.611-58.186 37.102-120.018 37.102-183.78 0-63.755-12.491-125.594-37.102-183.78-23.776-56.229-57.835-106.727-101.208-150.107-41.929-42.041-91.749-76.189-147.053-100.036l-3.055-1.172c-58.172-24.611-120.018-37.081-183.78-37.081-63.755 0-125.594 12.47-183.78 37.081-58.353 25.019-108.168 59.166-150.082 101.197l-0.011 0.011c-43.373 43.38-77.431 93.878-101.208 150.107-24.611 58.179-37.102 120.018-37.102 183.773s12.491 125.594 37.102 183.78c25.017 58.359 59.165 108.179 101.197 150.097l0.011 0.010c43.38 43.359 93.864 77.424 150.093 101.208 58.186 24.611 120.025 37.081 183.78 37.081z" />
<glyph unicode="&#xe908;" glyph-name="diamond-down" horiz-adv-x="1343" d="M1162.53 960h-982.267c-145.505 0-230.844-163.396-147.514-282.469l450.879-644.347c45.336-64.782 116.040-97.183 186.764-97.183 70.559 0 141.148 32.266 186.494 96.797l452.965 644.444c83.649 119.016-1.642 282.759-147.321 282.759zM1162.53 885.77c40.11 0 75.158-21.234 93.667-56.764 18.519-35.55 15.804-76.365-7.245-109.162l-452.946-644.415c-29.126-41.443-74.887-65.208-125.604-65.208-50.814 0-96.7 23.861-125.788 65.459l-450.917 644.357c-22.943 32.826-25.571 73.583-7.033 109.066 18.519 35.483 53.518 56.677 93.609 56.677h982.258z" />
<glyph unicode="&#xe909;" glyph-name="diamond-left" horiz-adv-x="781" d="M643.462 960c-26.381 0-53.425-7.787-77.993-24.974l-491.351-343.821c-98.694-69.065-98.857-215.408-0.295-284.657l491.417-345.412c24.62-17.312 51.753-25.129 78.207-25.129 71.105 0 137.444 56.519 137.444 137.474v749.030c0 80.955-66.317 137.489-137.43 137.489zM643.462 903.275c20.627 0 41.174-8.303 56.379-22.778 11.146-10.616 24.429-29.283 24.429-57.985v-749.045c0-28.701-13.283-47.369-24.443-57.97-15.191-14.491-35.752-22.793-56.379-22.793-16.303 0-31.685 5.009-45.69 14.852l-491.424 345.412c-31.633 22.248-49.756 57.189-49.734 95.917 0.052 38.713 18.263 73.647 49.926 95.821l491.373 343.828c13.99 9.783 29.298 14.741 45.564 14.741z" />
<glyph unicode="&#xe90a;" glyph-name="diamond-right" horiz-adv-x="781" d="M137.43 960c-71.105 0-137.43-56.504-137.43-137.474v-749.052c0-80.94 66.302-137.474 137.43-137.474 26.374 0 53.41 7.787 77.979 24.974l491.373 343.821c98.694 69.065 98.857 215.408 0.295 284.657l-491.432 345.427c-24.62 17.312-51.753 25.121-78.214 25.121zM137.444 903.29c16.303 0 31.678-4.995 45.675-14.852l491.439-345.405c31.633-22.248 49.771-57.189 49.734-95.91-0.052-38.713-18.24-73.647-49.933-95.821l-491.373-343.828c-13.975-9.791-29.306-14.741-45.557-14.741-20.649 0-41.188 8.295-56.394 22.771-11.146 10.616-24.429 29.283-24.429 57.97v749.052c0 28.701 13.283 47.369 24.443 57.985 15.191 14.476 35.752 22.778 56.379 22.778h0.015z" />
<glyph unicode="&#xe90b;" glyph-name="diamond-up" horiz-adv-x="1343" d="M672.401 960c-70.569 0-141.128-32.266-186.494-96.797l-452.965-644.405c-83.64-119.054 1.681-282.798 147.359-282.798h982.229c145.534 0 230.854 163.396 147.524 282.469l-450.85 644.347c-45.355 64.782-116.060 97.183-186.803 97.183zM672.42 885.75c50.814 0 96.671-23.832 125.788-65.459l450.879-644.347c22.953-32.797 25.6-73.554 7.052-109.037-18.538-35.483-53.499-56.677-93.619-56.677h-982.229c-40.149 0-75.158 21.214-93.677 56.764s-15.824 76.336 7.216 109.133l452.965 644.444c29.116 41.443 74.897 65.179 125.624 65.179z" />
<glyph unicode="&#xe90c;" glyph-name="hat-down" horiz-adv-x="1719" d="M1579.657 960l-744.43-745.271-696.027 696.814-139.2-139.346 835.237-836.197 883.621 884.626-139.2 139.374zM1579.657 873.28l52.599-52.654-797.029-797.906-748.617 749.477 52.59 52.635 696.027-696.805 744.43 745.253z" />
<glyph unicode="&#xe90d;" glyph-name="hat-left" horiz-adv-x="612" d="M498.222 956.289l-495.779-495.773 524.51-524.516 82.624 82.635-441.875 441.88 413.154 413.154-82.635 82.619zM498.222 904.872l31.218-31.208-413.154-413.154 441.88-441.88-31.218-31.218-473.093 473.104 444.373 444.362z" />
<glyph unicode="&#xe90e;" glyph-name="hat-left-double" horiz-adv-x="937" d="M499.896 960.298l-495.779-495.779 524.505-524.516 82.635 82.635-441.88 441.88 413.154 413.154-82.635 82.624zM499.896 911.265l33.602-33.592-413.154-413.154 441.87-441.88-33.592-33.592-475.472 475.472 446.746 446.746zM824.976 960.298l-495.779-495.779 524.505-524.516 82.635 82.635-441.88 441.88 413.154 413.154-82.635 82.624zM824.976 911.265l33.602-33.592-413.154-413.154 441.87-441.88-33.592-33.592-475.472 475.472 446.746 446.746z" />
<glyph unicode="&#xe90f;" glyph-name="hat-left-up" horiz-adv-x="964" d="M34.644 960h-34.644v-1024h160.701v862.686h803.504v161.314h-929.56zM47.687 912.134h868.845v-65.581h-803.519v-862.686h-65.327v928.267z" />
<glyph unicode="&#xe910;" glyph-name="hat-right" horiz-adv-x="612" d="M86.097 956.289l-82.624-82.624 441.87-441.88-413.154-413.154 82.635-82.63 495.779 495.789-524.505 524.499zM86.097 904.872l473.099-473.088-444.373-444.373-31.208 31.218 413.143 413.154-441.88 441.88 31.218 31.208z" />
<glyph unicode="&#xe911;" glyph-name="hat-right-double" horiz-adv-x="937" d="M410.288 958.494l-82.624-82.624 441.87-441.88-413.154-413.154 82.635-82.635 495.779 495.789-524.505 524.505zM410.288 909.461l475.472-475.483-446.746-446.735-33.592 33.592 413.154 413.154-441.88 441.88 33.592 33.592zM85.209 958.494l-82.624-82.624 441.87-441.88-413.154-413.154 82.635-82.635 495.779 495.789-524.505 524.505zM85.209 909.461l475.472-475.483-446.746-446.735-33.592 33.592 413.154 413.154-441.88 441.88 33.592 33.592z" />
<glyph unicode="&#xe912;" glyph-name="hat-right-up" horiz-adv-x="1088" d="M1087.504 960h-1087.504v-170.667h916.186v-853.333h171.318v1024zM1036.685 909.356v-922.711h-69.664v853.333h-916.186v69.378h985.85z" />
<glyph unicode="&#xe913;" glyph-name="hat-up" horiz-adv-x="1719" d="M883.63 960l-883.63-884.626 139.2-139.374 744.43 745.271 696.027-696.823 139.2 139.374-835.237 836.178zM883.63 873.28l748.608-749.458-52.571-52.654-696.037 696.823-744.43-745.271-52.599 52.654 797.029 797.906z" />
<glyph unicode="&#xe914;" glyph-name="rectangle-down" d="M511.994 404.058l243.328 243.341 117.171-117.152-360.499-360.499-360.486 360.486 117.165 117.152 243.328-243.328zM692.742 960h-361.485c-182.95 0-331.258-148.307-331.258-331.245v-361.51c0-182.938 148.307-331.245 331.258-331.245h361.485c182.95 0 331.258 148.307 331.258 331.245v361.51c0 182.938-148.307 331.245-331.258 331.245zM511.994 460.371l-243.328 243.328-173.459-173.466 416.787-416.8 416.8 416.806-173.466 173.472-243.328-243.341zM692.742 920.173c77.856 0 151.040-30.304 206.067-85.35 55.046-55.040 85.376-128.224 85.376-206.067v-361.51c0-77.843-30.33-151.021-85.376-206.067-55.034-55.046-128.211-85.35-206.067-85.35h-361.485c-77.856 0-151.046 30.304-206.080 85.35-55.040 55.040-85.363 128.224-85.363 206.067v361.51c0 77.843 30.33 151.021 85.363 206.067s128.224 85.35 206.080 85.35h361.485z" />
<glyph unicode="&#xe915;" glyph-name="rectangle-left" d="M594.24 87.52l-360.493 360.48 360.493 360.48 117.158-117.139-243.347-243.341 243.341-243.328-117.158-117.152zM692.742 960h-361.491c-182.95 0-331.251-148.301-331.251-331.251v-361.498c0-182.938 148.301-331.251 331.251-331.251h361.498c182.95 0 331.251 148.314 331.251 331.251v361.498c0 182.95-148.301 331.251-331.251 331.251zM594.234 31.206l173.472 173.466-243.328 243.328 243.315 243.334-173.459 173.459-416.794-416.794 416.794-416.794zM692.749 920.173c77.837 0 151.027-30.317 206.080-85.363 55.027-55.034 85.344-128.224 85.344-206.061v-361.498c0-77.837-30.317-151.027-85.35-206.061-55.040-55.046-128.237-85.363-206.080-85.363h-361.485c-77.85 0-151.027 30.317-206.080 85.363-55.027 55.034-85.344 128.224-85.344 206.061v361.498c0 77.837 30.317 151.027 85.35 206.061 55.040 55.046 128.224 85.363 206.080 85.363h361.491z" />
<glyph unicode="&#xe916;" glyph-name="rectangle-left-down" d="M285.376 219.392v509.798h165.677v-344.115h344.134v-165.683h-509.818zM692.749 960h-361.504c-182.938 0-331.245-148.301-331.245-331.251v-361.498c0-182.938 148.307-331.251 331.245-331.251h361.51c182.938 0 331.245 148.314 331.245 331.251v361.498c0 182.95-148.307 331.251-331.245 331.251zM245.562 179.571l589.453 0.013v245.312h-344.141v344.128h-245.306v-589.446zM692.755 920.179c77.824 0 151.021-30.323 206.067-85.37 55.040-55.034 85.35-128.224 85.35-206.061v-361.498c0-77.837-30.317-151.027-85.35-206.061-55.040-55.046-128.237-85.363-206.067-85.363h-361.51c-77.843 0-151.021 30.317-206.067 85.363-55.046 55.034-85.35 128.224-85.35 206.061v361.498c0 77.837 30.304 151.027 85.35 206.061 55.040 55.046 128.224 85.363 206.067 85.363h361.51z" />
<glyph unicode="&#xe917;" glyph-name="rectangle-left-up" d="M283.392 164.813v509.805h509.786l0.013-165.677h-344.115v-344.128h-165.683zM692.749 960h-361.51c-182.938 0-331.238-148.314-331.238-331.251v-361.498c0-182.95 148.301-331.251 331.238-331.251h361.51c182.95 0 331.251 148.301 331.251 331.251v361.498c0 182.938-148.301 331.251-331.251 331.251zM243.571 124.986l245.312 0.013v344.115h344.134v245.331h-589.446v-589.459zM692.749 920.173c77.824 0 151.014-30.317 206.061-85.363 55.046-55.034 85.35-128.224 85.35-206.061v-361.498c0-77.85-30.304-151.027-85.35-206.061-55.040-55.046-128.237-85.363-206.061-85.363h-361.51c-77.837 0-151.014 30.317-206.061 85.363-55.046 55.034-85.35 128.211-85.35 206.061v361.498c0 77.837 30.304 151.027 85.35 206.061 55.040 55.046 128.224 85.363 206.061 85.363h361.51z" />
<glyph unicode="&#xe918;" glyph-name="rectangle-right" d="M429.766 87.52l-117.165 117.152 243.341 243.328-243.341 243.341 117.152 117.139 360.499-360.48-360.486-360.48zM692.742 960h-361.485c-182.963 0-331.258-148.301-331.258-331.251v-361.498c0-182.938 148.288-331.251 331.258-331.251h361.485c182.95 0 331.258 148.314 331.258 331.251v361.498c0 182.95-148.307 331.251-331.258 331.251zM499.629 448l-243.328-243.328 173.466-173.466 416.794 416.794-416.806 416.794-173.466-173.466 243.341-243.328zM692.736 920.173c77.856 0 151.040-30.317 206.067-85.363 55.046-55.034 85.376-128.224 85.376-206.061v-361.498c0-77.837-30.33-151.027-85.376-206.061-55.034-55.046-128.211-85.363-206.067-85.363h-361.478c-77.856 0-151.046 30.317-206.080 85.363-55.040 55.034-85.363 128.224-85.363 206.061v361.498c0 77.837 30.33 151.027 85.363 206.061 55.034 55.046 128.224 85.363 206.080 85.363h361.485z" />
<glyph unicode="&#xe919;" glyph-name="rectangle-right-down" d="M230.81 221.376v165.69h344.109v344.128h165.683l0.013-509.805h-509.805zM692.755 960h-361.51c-182.938 0-331.245-148.314-331.245-331.251v-361.498c0-182.95 148.307-331.251 331.245-331.251h361.51c182.938 0 331.245 148.301 331.245 331.251v361.498c0 182.938-148.307 331.251-331.245 331.251zM535.11 426.88h-344.122v-245.325h589.453v589.459h-245.338v-344.128zM692.755 920.173c77.843 0 151.021-30.317 206.067-85.35 55.046-55.040 85.363-128.237 85.363-206.080v-361.491c0-77.85-30.317-151.027-85.363-206.061-55.040-55.046-128.224-85.363-206.067-85.363h-361.51c-77.824 0-151.021 30.317-206.067 85.363-55.040 55.034-85.35 128.211-85.35 206.061v361.498c0 77.837 30.317 151.027 85.35 206.080 55.040 55.027 128.237 85.344 206.067 85.344h361.51z" />
<glyph unicode="&#xe91a;" glyph-name="rectangle-right-up" d="M228.8 510.931v165.683h509.818v-509.805h-165.69v344.128h-344.128zM692.742 960h-361.498c-182.938 0-331.245-148.307-331.245-331.245v-361.51c0-182.938 148.307-331.245 331.245-331.245h361.498c182.938 0 331.258 148.307 331.258 331.245v361.51c0 182.938-148.32 331.245-331.258 331.245zM188.986 471.104h344.134v-344.115h245.325v589.453h-589.453v-245.338zM692.742 920.173c77.843 0 151.021-30.304 206.067-85.35 55.046-55.040 85.363-128.224 85.363-206.067v-361.51c0-77.843-30.317-151.021-85.363-206.067-55.040-55.046-128.224-85.35-206.067-85.35h-361.498c-77.843 0-151.040 30.304-206.080 85.35-55.040 55.040-85.35 128.224-85.35 206.067v361.51c0 77.843 30.317 151.021 85.35 206.067 55.040 55.046 128.237 85.35 206.080 85.35h361.498z" />
<glyph unicode="&#xe91b;" glyph-name="rectangle-up" d="M268.672 248.608l-117.158 117.158 360.499 360.48 360.486-360.48-117.158-117.158-243.328 243.328-243.328-243.328zM692.762 960h-361.504c-182.95 0-331.258-148.314-331.258-331.251v-361.498c0-182.95 148.307-331.251 331.258-331.251h361.498c182.938 0 331.245 148.301 331.245 331.251v361.498c0 182.938-148.307 331.251-331.245 331.251zM268.678 192.282l243.328 243.341 243.328-243.328 173.485 173.472-416.819 416.794-416.8-416.787 173.466-173.485zM692.755 920.173c77.843 0 151.040-30.317 206.080-85.363 55.040-55.034 85.35-128.224 85.35-206.061v-361.498c0-77.85-30.317-151.027-85.35-206.061-55.040-55.046-128.237-85.363-206.080-85.363h-361.498c-77.843 0-151.021 30.317-206.067 85.363-55.046 55.034-85.363 128.211-85.363 206.061v361.498c0 77.837 30.317 151.027 85.363 206.061 55.040 55.046 128.224 85.363 206.067 85.363h361.498z" />
<glyph unicode="&#xe91c;" glyph-name="sharp-down" horiz-adv-x="901" d="M515.271 960h-127.438v-779.96l-297.727 299.049-90.106-90.504 450.566-452.585 450.554 452.549-90.118 90.516-295.731-297.054v777.988zM475.616 920.175v-834.32l335.386 336.884 34.044-34.196-394.48-396.229-394.497 396.27 34.032 34.184 337.37-338.862v836.269h48.14z" />
<glyph unicode="&#xe91d;" glyph-name="sharp-left" horiz-adv-x="1164" d="M514.301 960l-514.301-512.013 514.261-511.987 102.859 102.4-337.561 336.058h884.078v144.823h-886.305l339.815 338.319-102.846 102.4zM514.301 896.279l38.846-38.686-385.071-383.368h950.305v-54.704h-948.091l382.836-381.121-38.859-38.679-450.267 448.266 450.301 448.293z" />
<glyph unicode="&#xe91e;" glyph-name="sharp-left-down" d="M903.629 960l-733.419-734.747v563.411h-170.211v-852.664h851.077v170.523h-558.658l731.582 732.903-120.371 120.574zM903.629 884.967l45.478-45.541-784.525-785.963h633.528v-64.418h-745.152v746.574h64.309v-638.444l786.354 787.784z" />
<glyph unicode="&#xe91f;" glyph-name="sharp-left-up" d="M0 960v-851.077h170.523v558.651l732.903-731.574 120.574 120.371-734.732 733.403h563.411v170.226h-852.679zM53.060 907.041h746.559v-64.309h-638.437l787.808-786.362-45.556-45.478-785.947 784.517v-633.543h-64.426v745.175z" />
<glyph unicode="&#xe920;" glyph-name="sharp-right" horiz-adv-x="1164" d="M649.376 960l-102.859-102.4 337.561-336.071h-884.078v-144.81h886.305l-339.815-338.319 102.865-102.4 514.281 512.013-514.261 511.987zM649.376 896.279l450.261-448.266-450.287-448.293-38.859 38.686 385.071 383.368h-950.305v54.704h948.091l-382.83 381.121 38.859 38.679z" />
<glyph unicode="&#xe921;" glyph-name="sharp-right-down" d="M120.574 960l-120.574-120.355 734.732-733.419h-563.388v-170.211l852.656-0.016v851.093h-170.523v-558.666l-732.903 731.574zM120.574 885.107l785.947-784.509v633.528h64.418v-745.167l-746.551 0.016v64.293h638.421l-787.776 786.377 45.541 45.462z" />
<glyph unicode="&#xe922;" glyph-name="sharp-right-up" d="M172.907 960v-170.523h558.666l-731.574-732.903 120.355-120.574 733.434 734.747v-563.427h170.211v852.679h-851.093zM225.874 906.94h745.159v-746.559h-64.301v638.437l-786.377-787.808-45.455 45.556 784.517 785.947h-633.543v64.426z" />
<glyph unicode="&#xe923;" glyph-name="sharp-up" horiz-adv-x="901" d="M450.542 960l-450.542-452.549 90.106-90.504 295.743 297.059v-778.006h127.438v779.96l297.721-299.037 90.112 90.504-450.578 452.573zM450.542 903.68l394.503-396.253-34.044-34.196-337.358 338.874v-836.28h-48.157v834.32l-335.38-336.89-34.044 34.196 394.48 396.229z" />
<glyph unicode="&#xe924;" glyph-name="soft-down" horiz-adv-x="901" d="M451.474 960c-37.363 0-67.662-30.221-67.662-67.493v-755.064l-268.314 267.653c-12.212 12.213-29.083 19.767-47.718 19.767-0.044 0-0.087 0-0.131 0h0.007c-0.029 0-0.064 0-0.099 0-18.641 0-35.519-7.554-47.737-19.767v0c-12.245-12.202-19.822-29.083-19.822-47.733s7.577-35.53 19.82-47.731l0.002-0.002 334.939-334.096c24.439-24.427 58.195-39.534 95.48-39.534 0.068 0 0.136 0 0.204 0h-0.011c0.061 0 0.134 0 0.207 0 37.286 0 71.044 15.107 95.486 39.535l-0.001-0.001 334.913 334.077c12.243 12.202 19.819 29.081 19.819 47.729s-7.575 35.527-19.817 47.728l-0.002 0.002c-12.227 12.214-29.11 19.767-47.759 19.767-0.027 0-0.055 0-0.082 0h0.004c-0.028 0-0.061 0-0.094 0-18.649 0-35.534-7.553-47.762-19.768l0.001 0.001-266.201-265.553v752.99c0.006 37.272-30.279 67.493-67.668 67.493zM451.474 918.003c0.002 0 0.004 0 0.007 0 14.094 0 25.524-11.407 25.561-25.493v-854.376l338.069 337.233c4.611 4.613 10.982 7.466 18.019 7.466 0.027 0 0.053 0 0.080 0h-0.004c0.014 0 0.031 0 0.049 0 14.081 0 25.496-11.415 25.496-25.496 0-7.038-2.852-13.41-7.463-18.024v0l-334.932-334.083c-16.785-16.829-39.996-27.24-65.639-27.24-0.098 0-0.196 0-0.294 0h0.015c-0.083 0-0.181 0-0.279 0-25.253 0-48.147 10.099-64.865 26.478l0.016-0.015-0.778 0.778-334.952 334.109c-4.608 4.615-7.457 10.987-7.457 18.024 0 14.088 11.421 25.509 25.509 25.509 0.011 0 0.021 0 0.032 0h-0.002c6.818 0 13.241-2.657 18.076-7.466l340.175-339.346v856.446c0.041 14.089 11.468 25.495 25.56 25.503h0.001z" />
<glyph unicode="&#xe925;" glyph-name="soft-left" horiz-adv-x="1164" d="M478.974 960c-0.023 0-0.050 0-0.077 0-21.174 0-40.338-8.606-54.185-22.511l-0.003-0.003-379.764-380.722c-59.93-60.062-59.93-157.468 0-217.545l379.735-380.692c13.851-13.916 33.021-22.528 54.202-22.528 0.022 0 0.044 0 0.066 0h-0.003c0.016 0 0.036 0 0.055 0 21.181 0 40.351 8.612 54.199 22.525l0.003 0.003c29.946 30.035 29.946 78.73 0 108.772l-301.866 302.61h855.917c42.367 0 76.719 34.433 76.719 76.911 0 42.47-34.352 76.911-76.719 76.911h-858.259l304.239 304.99c29.961 30.028 29.961 78.723 0 108.772-13.845 13.903-33.003 22.506-54.171 22.506-0.030 0-0.061 0-0.091 0h0.005zM478.974 912.152c7.735 0 15.028-3.028 20.495-8.509 5.235-5.272 8.47-12.535 8.47-20.554s-3.235-15.282-8.472-20.555l0.002 0.002-385.724-386.689h973.515c15.846-0.26 28.592-13.167 28.592-29.051s-12.746-28.791-28.568-29.051h-971.181l383.344-384.295c5.243-5.232 8.487-12.466 8.487-20.458 0-0.026 0-0.052 0-0.078v0.004c0-7.772-3.020-15.073-8.487-20.554-5.208-5.255-12.429-8.509-20.409-8.509-0.030 0-0.060 0-0.090 0h0.005c-7.735 0-15.021 3.020-20.502 8.509l-379.757 380.7c-40.908 41.026-41.218 107.594-0.869 148.974l0.869 0.884 379.779 380.722c5.217 5.256 12.446 8.509 20.434 8.509 0.024 0 0.048 0 0.072 0h-0.004z" />
<glyph unicode="&#xe926;" glyph-name="soft-left-down" d="M935.851 960c-0.032 0-0.069 0-0.107 0-24.317 0-46.324-9.89-62.218-25.867l-0.004-0.004-697.226-698.537v495.227c0 48.771-39.462 88.309-88.14 88.309-48.695 0-88.14-39.538-88.14-88.309v-618.208h-0.017c0-97.534 78.933-176.61 176.28-176.61h616.998c48.67 0 88.14 39.538 88.14 88.309 0 48.763-39.471 88.301-88.14 88.301h-490.42l695.33 696.642c34.418 34.486 34.418 90.4 0 124.877-15.9 15.981-37.909 25.871-62.229 25.871-0.038 0-0.076 0-0.114 0h0.006zM935.851 905.059c8.886 0 17.264-3.47 23.544-9.775 6.028-6.007 9.758-14.318 9.758-23.499 0-0.034 0-0.067 0-0.101v0.005c0-0.028 0-0.062 0-0.095 0-9.181-3.73-17.491-9.757-23.498l-0.001-0.001-788.937-790.426h622.812c18.194-0.299 32.829-15.119 32.829-33.356s-14.635-33.057-32.801-33.356h-617.018c-66.45 0-120.612 53.756-121.424 120.147v619.715c0 0.003 0 0.006 0 0.009 0 18.404 14.902 33.327 33.298 33.36h0.003c18.392-0.043 33.284-14.963 33.284-33.36 0-0.003 0-0.006 0-0.009v0-627.89l790.858 792.356c6 6.038 14.309 9.775 23.491 9.775 0.021 0 0.043 0 0.064 0h-0.003z" />
<glyph unicode="&#xe927;" glyph-name="soft-left-up" d="M176.619 960c-97.534 0-176.619-78.933-176.619-176.297v-616.99c0-48.678 39.538-88.14 88.301-88.14 48.788 0 88.326 39.462 88.326 88.14v490.42l696.616-695.313c15.94-15.952 37.968-25.82 62.301-25.82 0.048 0 0.097 0 0.145 0h-0.007c22.596 0 45.208 8.598 62.456 25.812 15.98 15.94 25.866 37.982 25.866 62.333s-9.886 46.393-25.864 62.331l-698.556 697.227h495.227c48.771 0 88.309 39.462 88.309 88.14s-39.547 88.157-88.309 88.157h-618.183zM176.619 905.144h618.191c18.401-0.010 33.321-14.905 33.369-33.297v-0.005c0-18.364-14.979-33.301-33.369-33.301h-627.873l792.339-790.85c6.022-6.027 9.746-14.35 9.746-23.544 0-18.396-14.913-33.31-33.31-33.31-0.011 0-0.022 0-0.033 0h0.002c-0.026 0-0.056 0-0.086 0-9.183 0-17.495 3.726-23.508 9.749v0l-790.418 788.954v-622.829c0-8.886-3.461-17.256-9.775-23.552-6.009-6.013-14.312-9.732-23.484-9.732-0.039 0-0.077 0-0.116 0h0.006c-18.396 0.005-33.312 14.894-33.36 33.28v616.995c0 66.484 53.79 120.646 120.197 121.441h1.489z" />
<glyph unicode="&#xe928;" glyph-name="soft-right" horiz-adv-x="1164" d="M685.027 960c-0.023 0-0.051 0-0.079 0-21.171 0-40.332-8.606-54.175-22.511l-0.003-0.003c-29.961-30.050-29.961-78.745 0-108.772l301.866-302.603h-855.917c-42.367 0-76.719-34.426-76.719-76.911s34.352-76.911 76.719-76.911h858.259l-304.239-304.99c-29.961-30.042-29.961-78.737 0-108.772 13.851-13.916 33.021-22.528 54.202-22.528 0.019 0 0.039 0 0.058 0h-0.003c0.019 0 0.041 0 0.063 0 21.181 0 40.351 8.612 54.199 22.525l0.003 0.003 379.764 380.722c59.93 60.062 59.93 157.468 0 217.53l-379.742 380.707c-13.846 13.907-33.007 22.513-54.178 22.513-0.028 0-0.056 0-0.083 0h0.004zM685.027 912.152c7.735 0 15.028-3.028 20.502-8.509l379.749-380.707c40.923-41.012 41.218-107.549 0.899-148.944l-0.913-0.899-379.764-380.722c-5.208-5.255-12.429-8.509-20.409-8.509-0.033 0-0.065 0-0.098 0h0.005c-7.735 0-15.014 3.020-20.495 8.509-5.243 5.224-8.487 12.452-8.487 20.436 0 0.041 0 0.082 0 0.124v-0.006c0 7.757 3.006 15.051 8.487 20.532l385.731 386.689h-973.515c-16.017 0.034-28.989 13.026-28.989 29.048 0 0.003 0 0.005 0 0.008v0c0 0.002 0 0.005 0 0.007 0 16.023 12.971 29.017 28.985 29.055h971.154l-383.344 384.28c-5.233 5.271-8.466 12.533-8.466 20.55s3.234 15.279 8.468 20.552l-0.002-0.002c5.217 5.256 12.446 8.509 20.434 8.509 0.021 0 0.043 0 0.064 0h-0.003z" />
<glyph unicode="&#xe929;" glyph-name="soft-right-down" d="M88.309 960c-22.596 0-45.208-8.598-62.456-25.812-15.975-15.94-25.858-37.98-25.858-62.329s9.883-46.388 25.857-62.327l698.556-697.253h-495.227c-48.771 0-88.309-39.445-88.309-88.14 0-48.678 39.538-88.14 88.309-88.14h618.208c97.534 0 176.61 78.916 176.61 176.28v617.007c0 48.678-39.538 88.14-88.309 88.14-48.763 0-88.301-39.462-88.301-88.14v-490.428l-696.625 695.321c-15.946 15.953-37.978 25.82-62.315 25.82-0.049 0-0.099 0-0.148 0h0.008zM88.309 905.161c8.903 0 17.298-3.47 23.594-9.749l790.426-788.971v622.837c0 18.427 14.938 33.365 33.365 33.365s33.365-14.938 33.365-33.365v0-616.998c0-66.484-53.79-120.646-120.197-121.441h-619.681c-18.401 0.010-33.321 14.905-33.369 33.297v0.005c0 8.886 3.478 17.256 9.775 23.552 6.013 6.023 14.325 9.749 23.508 9.749 0.030 0 0.061 0 0.091 0h627.868l-792.339 790.867c-6.038 6-9.775 14.309-9.775 23.491 0 0.021 0 0.043 0 0.064v-0.003c0 8.886 3.47 17.256 9.775 23.552 6.013 6.023 14.325 9.749 23.508 9.749 0.030 0 0.061 0 0.091 0h-0.005z" />
<glyph unicode="&#xe92a;" glyph-name="soft-right-up" d="M230.722 960c-48.67 0-88.14-39.538-88.14-88.309 0-48.78 39.471-88.318 88.14-88.318h490.42l-695.33-696.625c-34.418-34.486-34.418-90.4 0-124.877 15.9-15.981 37.909-25.871 62.229-25.871 0.038 0 0.076 0 0.114 0h-0.006c0.032 0 0.069 0 0.107 0 24.317 0 46.324 9.89 62.218 25.867l0.004 0.004 697.226 698.537v-495.227c0-48.771 39.462-88.326 88.14-88.326 48.695 0 88.14 39.555 88.14 88.326v618.191h0.017c0 97.551-78.933 176.627-176.28 176.627h-616.998zM230.722 960v-54.941h616.998c66.501 0 120.68-53.84 121.424-120.282v-619.596c-0.005-18.403-14.903-33.326-33.297-33.369h-0.004c-18.393 0.048-33.284 14.969-33.284 33.369 0 0 0 0 0 0v0 627.89l-790.858-792.348c-5.996-6.038-14.302-9.775-23.48-9.775-0.025 0-0.050 0-0.075 0h0.004c-8.886 0-17.247 3.47-23.544 9.775-6.028 6.002-9.758 14.308-9.758 23.485 0 0.038 0 0.077 0 0.115v-0.006c0 8.903 3.453 17.281 9.758 23.577l788.937 790.443h-622.812c-18.427 0-33.365 14.938-33.365 33.365s14.938 33.365 33.365 33.365v54.932z" />
<glyph unicode="&#xe92b;" glyph-name="soft-up" horiz-adv-x="901" d="M450.424 960c-0.061 0-0.134 0-0.207 0-37.286 0-71.044-15.107-95.486-39.535l0.001 0.001-334.913-334.083c-12.242-12.2-19.817-29.077-19.817-47.723s7.575-35.523 19.816-47.721l0.002-0.002c12.219-12.213 29.096-19.767 47.737-19.767 0.035 0 0.070 0 0.105 0h-0.005c17.324 0 34.641 6.585 47.843 19.767l266.214 265.54v-752.977c0-37.285 30.292-67.493 67.662-67.493h0.013c37.363 0 67.662 30.202 67.662 67.493v755.044l268.314-267.653c12.22-12.213 29.098-19.767 47.74-19.767 0.032 0 0.063 0 0.095 0h-0.005c17.324 0 34.635 6.598 47.849 19.767 12.245 12.202 19.822 29.083 19.822 47.733s-7.577 35.53-19.82 47.731l-0.002 0.002-334.939 334.116c-24.439 24.423-58.192 39.528-95.473 39.528-0.070 0-0.14 0-0.21 0h0.011zM450.43 918.003c0.084 0 0.184 0 0.284 0 25.255 0 48.15-10.101 64.866-26.484l-0.015 0.015 0.778-0.765 334.945-334.109c4.608-4.615 7.457-10.987 7.457-18.024 0-14.088-11.421-25.509-25.509-25.509-0.013 0-0.026 0-0.039 0h0.002c-0.016 0-0.034 0-0.053 0-7.036 0-13.407 2.853-18.016 7.466v0l-340.201 339.346v-856.446c-0.029-14.091-11.459-25.503-25.555-25.503-0.002 0-0.005 0-0.007 0v0c0 0 0 0 0 0-14.095 0-25.525 11.412-25.555 25.5v854.375l-338.095-337.246c-4.603-4.613-10.967-7.466-17.998-7.466-0.025 0-0.050 0-0.075 0h0.004c-0.009 0-0.020 0-0.030 0-14.088 0-25.509 11.421-25.509 25.509 0 7.037 2.85 13.409 7.458 18.024v0l334.932 334.083c16.785 16.829 39.996 27.24 65.639 27.24 0.098 0 0.196 0 0.294 0h-0.015z" />
<glyph unicode="&#xe92c;" glyph-name="triangle-down" horiz-adv-x="1429" d="M1428.645 960h-1428.645l712.729-1024 715.916 1024zM1306.525 896.273l-593.672-849.16-591.063 849.16h1184.727z" />
<glyph unicode="&#xe92d;" glyph-name="triangle-left" horiz-adv-x="734" d="M733.965 960l-733.965-510.858 733.965-513.142v1024zM688.288 872.694v-849.162l-608.647 425.522 608.647 423.646z" />
<glyph unicode="&#xe92e;" glyph-name="triangle-right" horiz-adv-x="734" d="M0 960v-1024l733.965 510.858-733.965 513.142zM45.678 872.469l608.647-425.522-608.647-423.652v849.174z" />
<glyph unicode="&#xe92f;" glyph-name="triangle-up" horiz-adv-x="1429" d="M715.916 960l-715.916-1024h1428.645l-712.729 1024zM715.801 848.904l591.063-849.202h-1184.743l593.672 849.202z" />
<glyph unicode="&#xe930;" glyph-name="woolen-hat-down" horiz-adv-x="1729" d="M1625.243 960c-0.033 0-0.071 0-0.11 0-28.706 0-54.678-11.711-73.397-30.615l-0.008-0.008-702.599-706.309c-2.572-2.601-6.141-4.212-10.085-4.212s-7.513 1.611-10.084 4.21l-0.001 0.001-651.496 654.945c-18.736 18.902-44.709 30.604-73.414 30.604-0.025 0-0.051 0-0.076 0h0.004c-0.034 0-0.074 0-0.114 0-28.711 0-54.688-11.702-73.423-30.597l-0.007-0.007c-40.583-40.815-40.583-106.989 0-147.804l776.907-781.032c8.087-8.139 19.287-13.177 31.663-13.177 0.022 0 0.043 0 0.065 0h-0.003c0.006 0 0.014 0 0.021 0 12.374 0 23.571 5.038 31.653 13.174l0.002 0.002 828.020 832.415c40.603 40.815 40.603 106.989 0 147.784-18.728 18.913-44.699 30.623-73.405 30.623-0.039 0-0.078 0-0.116 0h0.006zM1625.243 894.976c10.491 0 20.354-4.115 27.764-11.573 7.097-7.167 11.481-17.031 11.481-27.918s-4.385-20.751-11.484-27.922l0.003 0.003-813.945-818.282-762.88 766.918c-7.098 7.115-11.486 16.935-11.486 27.78 0 0.049 0 0.097 0 0.146v-0.007c0 10.53 4.086 20.441 11.496 27.899 7.056 7.147 16.852 11.573 27.682 11.573 0.029 0 0.058 0 0.086 0h-0.004c10.501 0 20.354-4.106 27.774-11.573l651.496-654.945c14.196-14.354 33.893-23.243 55.665-23.243 0.060 0 0.121 0 0.181 0h-0.009c0.050 0 0.11 0 0.17 0 21.761 0 41.446 8.89 55.621 23.235l0.008 0.008 702.619 706.318c7.051 7.146 16.844 11.573 27.67 11.573 0.033 0 0.066 0 0.099 0h-0.005z" />
<glyph unicode="&#xe931;" glyph-name="woolen-hat-left" horiz-adv-x="606" d="M514.082 960c-15.846 0-31.693-6.007-43.763-18.026l-462.505-460.079c-4.827-4.793-7.815-11.432-7.815-18.77s2.988-13.977 7.814-18.768l0.002-0.002 492.933-490.33c11.184-11.139 26.611-18.026 43.646-18.026 0.037 0 0.075 0 0.112 0h-0.006c15.841 0 31.675 6.007 43.763 18.026 11.196 11.114 18.127 26.512 18.127 43.529s-6.931 32.415-18.124 43.525l-0.004 0.004-418.273 416.076c-1.536 1.524-2.486 3.636-2.486 5.97s0.951 4.445 2.486 5.969l0.001 0.001 387.861 385.808c11.193 11.118 18.121 26.517 18.121 43.534s-6.928 32.417-18.118 43.531l-0.003 0.003c-11.185 11.139-26.612 18.026-43.648 18.026-0.042 0-0.085 0-0.127 0h0.007zM514.082 921.694c6.236 0 12.116-2.42 16.51-6.813 4.228-4.198 6.845-10.014 6.845-16.441s-2.617-12.243-6.843-16.44l-0.001-0.001-387.833-385.802c-8.503-8.399-13.77-20.059-13.77-32.948 0-0.041 0-0.083 0-0.124v0.006c0-12.483 4.891-24.233 13.758-33.054l418.284-416.076c4.225-4.175 6.842-9.97 6.842-16.377 0-0.023 0-0.045 0-0.068v0.004c0-0.022 0-0.048 0-0.074 0-6.407-2.617-12.203-6.84-16.377l-0.002-0.002c-4.214-4.206-10.032-6.808-16.457-6.808-0.029 0-0.058 0-0.086 0h0.004c-0.026 0-0.057 0-0.088 0-6.421 0-12.235 2.601-16.445 6.808v0l-484.547 482.024 454.141 451.744c4.206 4.21 10.018 6.814 16.439 6.814 0.033 0 0.066 0 0.099 0h-0.005z" />
<glyph unicode="&#xe932;" glyph-name="woolen-hat-left-double" horiz-adv-x="979" d="M510.767 956.266c-0.027 0-0.059 0-0.092 0-16.818 0-32.042-6.826-43.051-17.86l-455.947-455.958c-4.761-4.761-7.705-11.337-7.705-18.602s2.944-13.841 7.705-18.602l485.953-485.942c11.011-11.044 26.239-17.878 43.064-17.878 0.024 0 0.048 0 0.072 0h-0.004c15.615 0 31.229 5.963 43.144 17.878 23.829 23.818 23.829 62.447 0 86.276l-412.35 412.35c-1.515 1.514-2.452 3.607-2.452 5.918s0.937 4.403 2.452 5.918l382.354 382.348c23.829 23.829 23.829 62.458 0 86.288-11.005 11.037-26.226 17.866-43.041 17.866-0.036 0-0.072 0-0.108 0h0.006zM510.767 920.058c6.631 0 12.865-2.58 17.549-7.264 4.48-4.462 7.253-10.637 7.253-17.458 0-0.028 0-0.056 0-0.084v0.004c0-0.026 0-0.056 0-0.087 0-6.82-2.773-12.992-7.252-17.45l-382.355-382.349c-8.073-8.026-13.069-19.138-13.069-31.417 0-0.037 0-0.075 0-0.112v0.006c0-11.903 4.65-23.105 13.069-31.523l412.338-412.35c4.494-4.465 7.276-10.649 7.276-17.483 0-0.019 0-0.039 0-0.058v0.003c0-0.014 0-0.030 0-0.046 0-6.837-2.781-13.024-7.274-17.491l-0.001-0.001c-4.462-4.487-10.641-7.264-17.467-7.264-0.025 0-0.050 0-0.075 0h0.004c-6.619 0-12.842 2.58-17.527 7.264l-478.96 478.943 448.953 448.959c4.465 4.487 10.645 7.264 17.474 7.264 0.022 0 0.045 0 0.067 0h-0.003zM884.159 956.266c-0.027 0-0.059 0-0.092 0-16.818 0-32.042-6.826-43.051-17.86l-455.947-455.958c-4.761-4.761-7.705-11.337-7.705-18.602s2.944-13.841 7.705-18.602l485.953-485.942c11.011-11.044 26.239-17.878 43.064-17.878 0.024 0 0.048 0 0.072 0h-0.004c15.615 0 31.229 5.963 43.144 17.878 23.829 23.818 23.829 62.447 0 86.276l-412.35 412.35c-1.515 1.514-2.452 3.607-2.452 5.918s0.937 4.403 2.452 5.918l382.354 382.354c23.829 23.829 23.829 62.458 0 86.288-11.005 11.034-26.223 17.861-43.036 17.861-0.038 0-0.076 0-0.114 0h0.006zM884.159 920.058c6.631 0 12.865-2.58 17.549-7.264 4.48-4.462 7.253-10.637 7.253-17.458 0-0.028 0-0.056 0-0.084v0.004c0-0.026 0-0.056 0-0.087 0-6.82-2.773-12.992-7.252-17.45l-382.355-382.349c-8.073-8.026-13.069-19.138-13.069-31.417 0-0.037 0-0.075 0-0.112v0.006c0-11.903 4.65-23.105 13.069-31.523l412.338-412.35c4.494-4.465 7.276-10.649 7.276-17.483 0-0.019 0-0.039 0-0.058v0.003c0-0.014 0-0.030 0-0.046 0-6.837-2.781-13.024-7.274-17.491l-0.001-0.001c-4.462-4.487-10.641-7.264-17.467-7.264-0.025 0-0.050 0-0.075 0h0.004c-6.619 0-12.842 2.58-17.527 7.264l-478.96 478.943 448.953 448.953c4.465 4.487 10.645 7.264 17.474 7.264 0.022 0 0.045 0 0.067 0h-0.003z" />
<glyph unicode="&#xe933;" glyph-name="woolen-hat-left-up" horiz-adv-x="964" d="M883.839 960h-849.173c-19.142 0-34.667-15.569-34.667-34.779v-908.572c0-44.54 35.989-80.649 80.35-80.649 44.391 0 80.358 36.109 80.358 80.657v770.982c0 6.099 4.933 11.055 11.017 11.055h712.114c44.398 0 80.365 36.102 80.365 80.649s-35.975 80.657-80.365 80.657zM883.839 912.134c18.013 0 32.663-14.71 32.663-32.79 0-18.088-14.65-32.79-32.663-32.79h-712.114c-32.364 0-58.712-26.452-58.712-58.921v-770.982c0-18.088-14.65-32.79-32.663-32.79-18.006 0-32.648 14.71-32.648 32.79v895.484h836.137z" />
<glyph unicode="&#xe934;" glyph-name="woolen-hat-right" horiz-adv-x="606" d="M61.892 960c-0.036 0-0.079 0-0.122 0-17.034 0-32.459-6.887-43.643-18.028l0.002 0.002c-11.197-11.116-18.128-26.516-18.128-43.534s6.931-32.419 18.125-43.531l0.004-0.004 418.273-416.064c3.318-3.307 3.318-8.65 0-11.956l-387.844-385.796c-11.196-11.114-18.127-26.512-18.127-43.529s6.931-32.415 18.124-43.525l0.004-0.004c11.184-11.143 26.613-18.032 43.651-18.032 0.035 0 0.071 0 0.106 0h-0.005c15.835 0 31.675 6.007 43.763 18.026l462.505 460.079c4.828 4.79 7.817 11.428 7.817 18.764s-2.989 13.974-7.815 18.762l-0.002 0.002-492.922 490.342c-11.185 11.139-26.612 18.026-43.648 18.026-0.040 0-0.081 0-0.121 0h0.006zM61.892 921.694c6.241 0 12.122-2.42 16.533-6.813l484.558-482.024-454.135-451.75c-4.214-4.206-10.032-6.808-16.457-6.808-0.029 0-0.058 0-0.086 0h0.004c-0.026 0-0.057 0-0.088 0-6.421 0-12.235 2.601-16.445 6.808v0c-4.229 4.179-6.848 9.978-6.848 16.389 0 0.022 0 0.044 0 0.067v-0.003c0 6.213 2.431 12.048 6.853 16.441l387.844 385.802c8.492 8.446 13.748 20.139 13.748 33.060s-5.256 24.614-13.746 33.058l-0.002 0.002-418.261 416.076c-4.232 4.178-6.853 9.979-6.853 16.393 0 0.017 0 0.034 0 0.051v-0.003c0 6.213 2.431 12.053 6.853 16.441 4.206 4.21 10.018 6.813 16.439 6.813 0.031 0 0.062 0 0.093 0h-0.005z" />
<glyph unicode="&#xe935;" glyph-name="woolen-hat-right-double" horiz-adv-x="979" d="M438.283 956.266c-0.029 0-0.063 0-0.097 0-16.818 0-32.042-6.826-43.051-17.86l-0.001-0.001c-23.829-23.829-23.829-62.458 0-86.288l412.35-412.35c1.515-1.514 2.452-3.607 2.452-5.918s-0.937-4.403-2.452-5.918l-382.354-382.354c-23.829-23.829-23.829-62.458 0-86.276 11.014-11.044 26.246-17.878 43.074-17.878 0.025 0 0.049 0 0.074 0h-0.004c15.615 0 31.229 5.963 43.144 17.878l455.957 455.946c4.756 4.762 7.698 11.339 7.698 18.602s-2.941 13.839-7.698 18.602v0l-485.953 485.953c-11.011 11.034-26.234 17.861-43.052 17.861-0.030 0-0.061 0-0.091 0h0.005zM438.283 920.058c6.631 0 12.854-2.58 17.538-7.264l478.949-478.949-448.953-448.953c-4.465-4.487-10.645-7.264-17.474-7.264-0.022 0-0.045 0-0.067 0h0.003c-0.021 0-0.046 0-0.071 0-6.827 0-13.005 2.777-17.466 7.263l-0.001 0.001c-4.487 4.465-7.264 10.645-7.264 17.474 0 0.022 0 0.045 0 0.067v-0.003c0 6.631 2.58 12.854 7.264 17.538l382.354 382.354c17.38 17.391 17.38 45.667 0 63.047l-412.35 412.355c-4.479 4.493-7.248 10.692-7.248 17.538s2.769 13.045 7.249 17.539l-0.001-0.001c4.462 4.487 10.641 7.264 17.467 7.264 0.025 0 0.050 0 0.075 0h-0.004zM64.891 956.266c-0.029 0-0.063 0-0.097 0-16.818 0-32.042-6.826-43.051-17.86l-0.001-0.001c-23.829-23.829-23.829-62.458 0-86.288l412.355-412.35c1.515-1.514 2.452-3.607 2.452-5.918s-0.937-4.403-2.452-5.918l-382.359-382.354c-23.829-23.829-23.829-62.458 0-86.276 11.014-11.044 26.246-17.878 43.074-17.878 0.025 0 0.049 0 0.074 0h-0.004c15.615 0 31.229 5.963 43.144 17.878l455.957 455.946c4.756 4.762 7.698 11.339 7.698 18.602s-2.941 13.839-7.698 18.602v0l-485.953 485.953c-11.011 11.034-26.234 17.861-43.052 17.861-0.030 0-0.061 0-0.091 0h0.005zM64.891 920.058c6.631 0 12.854-2.58 17.538-7.264l478.949-478.949-448.953-448.953c-4.465-4.487-10.645-7.264-17.474-7.264-0.022 0-0.045 0-0.067 0h0.003c-0.021 0-0.046 0-0.071 0-6.827 0-13.005 2.777-17.466 7.263l-0.001 0.001c-4.487 4.465-7.264 10.645-7.264 17.474 0 0.022 0 0.045 0 0.067v-0.003c0 6.631 2.58 12.854 7.264 17.538l382.354 382.354c17.38 17.391 17.38 45.667 0 63.047l-412.35 412.355c-4.479 4.493-7.248 10.692-7.248 17.538s2.769 13.045 7.249 17.539l-0.001-0.001c4.462 4.487 10.641 7.264 17.467 7.264 0.025 0 0.050 0 0.075 0h-0.004z" />
<glyph unicode="&#xe936;" glyph-name="woolen-hat-right-up" horiz-adv-x="1088" d="M1050.584 960h-964.91c-47.31 0-85.675-38.206-85.675-85.333s38.364-85.333 85.675-85.333h818.779c6.477 0 11.748-5.239 11.748-11.693v-756.307c0-47.128 38.356-85.333 85.667-85.333 47.295 0 85.643 38.206 85.643 85.333v901.874c-0.036 20.328-16.523 36.793-36.856 36.793-0.025 0-0.050 0-0.075 0h0.004zM1036.685 909.356v-888.022c0-19.123-15.622-34.689-34.824-34.689-19.21 0-34.848 15.566-34.848 34.689v756.307c0 34.356-28.053 62.337-62.567 62.337h-818.771c-19.21 0-34.84 15.558-34.84 34.689s15.638 34.689 34.848 34.689h951.002z" />
<glyph unicode="&#xe937;" glyph-name="woolen-hat-up" horiz-adv-x="1729" d="M890.155 960c-0.009 0-0.019 0-0.029 0-12.381 0-23.583-5.046-31.663-13.193l-0.003-0.003-828.030-832.396c-40.583-40.815-40.583-106.989 0-147.804 18.742-18.902 44.72-30.604 73.43-30.604 0.040 0 0.080 0 0.12 0h-0.006c26.605 0 53.19 10.192 73.486 30.604l702.628 706.328c2.566 2.607 6.132 4.222 10.076 4.222s7.51-1.615 10.074-4.22l0.002-0.002 651.496-654.945c18.735-18.902 44.706-30.604 73.41-30.604 0.037 0 0.074 0 0.111 0h-0.006c0.032 0 0.070 0 0.108 0 28.694 0 54.655 11.703 73.37 30.596l0.008 0.008c40.622 40.815 40.622 106.989 0 147.784l-776.868 781.032c-8.090 8.151-19.299 13.196-31.686 13.196-0.010 0-0.020 0-0.030 0h0.002zM890.155 886.697l762.851-766.899c7.115-7.109 11.515-16.933 11.515-27.785 0-0.047 0-0.094 0-0.14v0.007c0-0.034 0-0.074 0-0.114 0-10.852-4.401-20.676-11.515-27.785v0c-7.051-7.146-16.844-11.573-27.67-11.573-0.033 0-0.066 0-0.099 0h0.005c-0.025 0-0.055 0-0.084 0-10.826 0-20.619 4.427-27.666 11.569l-0.004 0.004-651.496 654.945c-14.196 14.354-33.893 23.243-55.665 23.243-0.060 0-0.121 0-0.181 0h0.009c-0.051 0-0.111 0-0.172 0-21.773 0-41.469-8.889-55.658-23.236l-0.007-0.007-702.59-706.318c-7.056-7.147-16.852-11.573-27.682-11.573-0.025 0-0.051 0-0.076 0h0.004c-0.029 0-0.063 0-0.097 0-10.831 0-20.629 4.427-27.682 11.569l-0.004 0.004c-7.103 7.104-11.496 16.918-11.496 27.758 0 0.056 0 0.113 0 0.169v-0.009c0 10.53 4.067 20.441 11.496 27.899l813.964 818.273z" />
</font>
</defs>
</svg>
