<svg xmlns="http://www.w3.org/2000/svg" width="120" height="120" viewBox="0 0 120 120">
    <g fill="none" fill-rule="evenodd">
        <rect width="120" height="120" fill="#913FFF" rx="22.609"/>
        <path fill="#D79FFF" d="M56.760000000000005 76.58999999999999c-.51 1.24-1.054 2.464-1.634 3.77.58-1.306 1.124-2.53 1.634-3.77m-1.864-5.335c.026.128.074.263.142.409.206.435.403.874.602 1.313-.199-.439-.396-.878-.602-1.313a1.84 1.84 0 0 1-.142-.41m37.725 12.23c-2.628-5.799-6.742-10.01-11.892-13.098a33.365 33.365 0 0 0-6.498-3.006l-.004-.002-.204-.065a31.66 31.66 0 0 0-1.318-.404c-.166-.05-.33-.099-.489-.145a679.16 679.16 0 0 0-.552-5.373c-.094-.881-.207-1.759-.322-2.733-.063.068-.128.134-.192.202-1.378 2.962-3.584 5.285-6.75 6.82-1.199.582-2.376.9-3.529.988-.387.03-.772.032-1.154.01a2.271 2.271 0 0 1 0 0c-2.033-.117-3.984-.948-5.829-2.34-1.885-1.423-3.328-3.147-4.327-5.15-.108-.105-.216-.203-.323-.31-.043.195-.098.366-.117.54-.264 2.448-.532 4.895-.772 7.344l.09-.025c.115.275.237.56.354.847-.117-.287-.24-.572-.355-.847l-.089.025c-14.353 3.722-23.497 15.54-23.347 29.884h70.426c-.11-4.658-.94-9.042-2.807-13.162"/>
        <path fill="#FFF" d="M75.597 46.772c-.013-.581-.263-.976-.961-.984-.741-.01-1.052-.495-.8-1.21.731-2.078.832-4.243.948-6.276-.039-1.784-.158-3.422-.806-4.966-.609-1.45-1.491-2.605-3.161-2.933-.245-.047-.451-.344-.655-.545-.868-.86-1.621-1.887-2.611-2.567-3.214-2.205-6.796-2.673-10.508-1.65-3.46.954-6.128 3.161-8.336 5.917-1.873 2.338-2.86 5.06-2.723 8.063.074 1.645.49 3.278.8 4.905.13.675-.055 1.135-.657 1.25-1.041.2-1.199.339-1.157 1.407.09 2.341.773 4.529 1.855 6.593.139.264.395.547.662.644.515.189.671.553.766 1.027.257 1.28.656 2.474 1.183 3.589l-.012-.008.207.43c-.047-.044-.094-.084-.142-.13 1 2.004 2.442 3.728 4.328 5.152 1.588 1.198 3.255 1.977 4.986 2.246h2.653a9.963 9.963 0 0 0 2.872-.904c3.124-1.515 5.308-3.799 6.69-6.703.044-.045.09-.09.132-.136a17.683 17.683 0 0 0 1.184-3.476c.077-.33.23-.81.471-.905.727-.285 1.079-.857 1.299-1.495a63.337 63.337 0 0 0 1.363-4.433c.16-.604.143-1.267.13-1.902"/>
        <path fill="#913FFF" d="M63.807 75.553c.556-1.291 1.108-2.585 1.714-3.852.346-.721.192-1.208-.426-1.68a130.433 130.433 0 0 1-3.97-3.161 2.067 2.067 0 0 0-.276-.192c-.388.03-.772.032-1.154.01a2.312 2.312 0 0 0-.294.206c-1.303 1.08-2.63 2.13-3.972 3.16-.59.454-.737.932-.413 1.62a77.329 77.329 0 0 1 1.703 3.857c.126.313.146.763.02 1.07-.68 1.652-1.423 3.278-2.226 5.103l.336.827c1.022 2.521 2.78 3.92 5.314 3.914 2.534-.005 4.285-1.41 5.306-3.931l.446-1.096c-.779-1.77-1.527-3.448-2.237-5.139-.08-.189.034-.495.129-.716M56.047 46.73c0-.938-.759-1.7-1.694-1.7-.936 0-1.695.762-1.695 1.7s.76 1.7 1.695 1.7 1.694-.762 1.694-1.7M66.216 45.03c-.936 0-1.694.761-1.694 1.7 0 .938.758 1.7 1.694 1.7.936 0 1.694-.762 1.694-1.7 0-.939-.758-1.7-1.694-1.7"/>
        <path fill="#D79FFF" d="M60.75 24c-10.006.003-14.877 7.264-15.32 13.092-.1 1.314.203 7.139.774 7.911 2.472 3.345 10.408-2.989 16.856-7.679 5.846-4.25 9.392 4.031 9.712 6.47.83 6.34 3.945-4.641 4.004-6.393.17-5.052-6.474-13.404-16.026-13.401"/>
    </g>
</svg>
