<svg xmlns="http://www.w3.org/2000/svg" width="18" height="18" viewBox="0 0 18 18">
    <path fill="#4A4A4A" fill-rule="evenodd" d="M17.172 10.86c0 1.17-.95 2.12-2.119 2.12h-1.25V7.14a2.956 2.956 0 0 0-2.947-2.949H5.024V2.948c0-1.169.95-2.12 2.12-2.12h7.91c1.168 0 2.118.951 2.118 2.12v7.913zM15.053 0h-7.91a2.956 2.956 0 0 0-2.947 2.948v1.243h-1.25A2.956 2.956 0 0 0 0 7.14v7.913A2.956 2.956 0 0 0 2.947 18h7.91a2.956 2.956 0 0 0 2.947-2.948v-1.243h1.25A2.956 2.956 0 0 0 18 10.86V2.948A2.956 2.956 0 0 0 15.053 0z"/>
</svg>
