<svg xmlns="http://www.w3.org/2000/svg" width="86" height="86" viewBox="0 0 86 86">
    <g fill="none" fill-rule="evenodd">
        <path fill="#FF9CCE" d="M82.593 27.058c-.471-1.19-2.022-1.492-2.927-.588a1.805 1.805 0 0 0-.389 1.943c5.54 14.1 2.632 30.78-8.746 42.158-15.746 15.746-41.651 15.292-56.812-1.36C.442 54.625.137 32.098 13.041 17.183 24.331 4.135 42.026.483 56.911 6.207a1.805 1.805 0 0 0 1.931-.395c.909-.909.6-2.467-.598-2.93-15.925-6.16-34.79-2.445-47.167 11.146-14.77 16.22-14.77 41.352 0 57.573 16.569 18.197 44.77 18.693 61.973 1.49 12.445-12.445 15.623-30.644 9.543-46.033"/>
        <path fill="#4ABDE5" d="M80.169 21.883a6.118 6.118 0 1 0-8.652-8.652 6.118 6.118 0 0 0 8.652 8.652"/>
    </g>
</svg>
