<?xml version="1.0" encoding="UTF-8"?>
<svg width="28px" height="28px" viewBox="0 0 28 28" version="1.1" xmlns="http://www.w3.org/2000/svg" xmlns:xlink="http://www.w3.org/1999/xlink">
    <!-- Generator: sketchtool 50.2 (55047) - http://www.bohemiancoding.com/sketch -->
    <title>47EB1441-BE33-4658-9921-8C50A35A39E8</title>
    <desc>Created with sketchtool.</desc>
    <defs></defs>
    <g id="18.6.4" stroke="none" stroke-width="1" fill="none" fill-rule="evenodd">
        <g id="01" transform="translate(-258.000000, -37.000000)" fill="#9B9B9B">
            <g id="Group-5" transform="translate(258.000000, 37.000000)">
                <g id="Group">
                    <path d="M3.43177391,6.86373913 C1.53646957,6.86373913 0.00012173913,5.32721739 0.00012173913,3.43191304 C0.00012173913,1.5366087 1.53646957,8.69565217e-05 3.43177391,8.69565217e-05 C5.32707826,8.69565217e-05 6.8636,1.5366087 6.8636,3.43191304 C6.8636,5.32721739 5.32707826,6.86373913 3.43177391,6.86373913" id="Fill-1"></path>
                    <path d="M13.9246435,6.86373913 C12.0293391,6.86373913 10.4928174,5.32721739 10.4928174,3.43191304 C10.4928174,1.5366087 12.0293391,8.69565217e-05 13.9246435,8.69565217e-05 C15.8199478,8.69565217e-05 17.3562957,1.5366087 17.3562957,3.43191304 C17.3562957,5.32721739 15.8199478,6.86373913 13.9246435,6.86373913" id="Fill-3"></path>
                    <path d="M24.4173391,6.86373913 C22.5220348,6.86373913 20.985513,5.32721739 20.985513,3.43191304 C20.985513,1.5366087 22.5220348,8.69565217e-05 24.4173391,8.69565217e-05 C26.3126435,8.69565217e-05 27.8491652,1.5366087 27.8491652,3.43191304 C27.8491652,5.32721739 26.3126435,6.86373913 24.4173391,6.86373913" id="Fill-5"></path>
                    <path d="M3.43177391,17.3564348 C1.53646957,17.3564348 0.00012173913,15.820087 0.00012173913,13.9246087 C0.00012173913,12.0293043 1.53646957,10.4927826 3.43177391,10.4927826 C5.32707826,10.4927826 6.8636,12.0293043 6.8636,13.9246087 C6.8636,15.820087 5.32707826,17.3564348 3.43177391,17.3564348" id="Fill-7"></path>
                    <path d="M13.9246435,17.3564348 C12.0293391,17.3564348 10.4928174,15.820087 10.4928174,13.9246087 C10.4928174,12.0293043 12.0293391,10.4927826 13.9246435,10.4927826 C15.8199478,10.4927826 17.3562957,12.0293043 17.3562957,13.9246087 C17.3562957,15.820087 15.8199478,17.3564348 13.9246435,17.3564348" id="Fill-9"></path>
                    <path d="M24.4173391,17.3564348 C22.5220348,17.3564348 20.985513,15.820087 20.985513,13.9246087 C20.985513,12.0293043 22.5220348,10.4927826 24.4173391,10.4927826 C26.3126435,10.4927826 27.8491652,12.0293043 27.8491652,13.9246087 C27.8491652,15.820087 26.3126435,17.3564348 24.4173391,17.3564348" id="Fill-11"></path>
                    <path d="M3.43177391,27.8492174 C1.53646957,27.8492174 0.00012173913,26.3126957 0.00012173913,24.4173913 C0.00012173913,22.522087 1.53646957,20.9855652 3.43177391,20.9855652 C5.32707826,20.9855652 6.8636,22.522087 6.8636,24.4173913 C6.8636,26.3126957 5.32707826,27.8492174 3.43177391,27.8492174" id="Fill-13"></path>
                    <path d="M13.9246435,27.8492174 C12.0293391,27.8492174 10.4928174,26.3126957 10.4928174,24.4173913 C10.4928174,22.522087 12.0293391,20.9855652 13.9246435,20.9855652 C15.8199478,20.9855652 17.3562957,22.522087 17.3562957,24.4173913 C17.3562957,26.3126957 15.8199478,27.8492174 13.9246435,27.8492174" id="Fill-15"></path>
                    <path d="M24.4173391,27.8492174 C22.5220348,27.8492174 20.985513,26.3126957 20.985513,24.4173913 C20.985513,22.522087 22.5220348,20.9855652 24.4173391,20.9855652 C26.3126435,20.9855652 27.8491652,22.522087 27.8491652,24.4173913 C27.8491652,26.3126957 26.3126435,27.8492174 24.4173391,27.8492174" id="Fill-17"></path>
                </g>
            </g>
        </g>
    </g>
</svg>