<svg xmlns="http://www.w3.org/2000/svg" width="34" height="34" viewBox="0 0 34 34">
    <path fill="#9B9B9B" fill-rule="evenodd" d="M14.899 25.954c-6.097 0-11.056-4.96-11.056-11.055 0-6.097 4.96-11.056 11.056-11.056 6.096 0 11.055 4.96 11.055 11.056 0 2.717-.987 5.206-2.619 7.133-.397.47-.833.906-1.303 1.303a11.005 11.005 0 0 1-7.133 2.62m16.831 4.472l-7.09-7.09a12.84 12.84 0 0 0 3.157-8.438C27.797 7.786 22.011 2 14.9 2 7.786 2 2 7.786 2 14.899c0 7.112 5.786 12.898 12.899 12.898a12.84 12.84 0 0 0 8.439-3.156l7.09 7.09a.921.921 0 1 0 1.302-1.304"/>
</svg>
