<svg xmlns="http://www.w3.org/2000/svg" width="63" height="36" viewBox="0 0 63 36">
    <g fill="#B8B8B8" fill-rule="evenodd">
        <path d="M12.536 25.238a6.45 6.45 0 0 1-2.025 2.894c-1.128.91-2.578 1.356-3.694 1.138-.747-.146-1.322-.583-1.71-1.299-.744-1.37-.79-3.793 1.249-6.54l.079-.03c.793-.305 2.34-.836 3.789-.965 1.438-.127 2.335.175 2.665.898.425.93.075 2.684-.353 3.904m-.778-9.218c-2.541-.241-5.017.452-6.186.851-.741-.147-1.476.11-2.017.72-3.015 3.407-4.915 8.701-2.364 12.85 1.078 1.754 2.711 2.885 4.723 3.271.49.094.993.14 1.501.14 1.928 0 3.938-.661 5.602-1.879 1.739-1.272 3.204-3.267 4.02-5.473.881-2.383.939-4.8.162-6.806-.83-2.145-2.711-3.415-5.44-3.674M19.52 8.99a2.971 2.971 0 0 0-2.483-.086c-.843.348-1.458 1.044-1.827 2.067-.291.808-.367 1.608-.219 2.315.26 1.241 1.417 2.216 2.691 2.267l.106.002c.25 0 .498-.036.74-.107 1.062-.03 2.058-.614 2.57-1.516a2.893 2.893 0 0 0 .374-1.592c.327-1.415-.549-2.913-1.951-3.35M62.288 27.967l-6.553-7.459c-.814-.926-1.63-1.81-2.583-2.468-1.597.069-2.937.927-2.88 3.644.91.287 1.816 1.453 2.544 2.39.27.347.523.674.775.96l5.325 6.06c.82.933 2.111 1.02 3.073.21.912-.77 1.273-2.229.3-3.337"/>
        <path d="M53.152 18.04a6.792 6.792 0 0 0-.724-.439c-1.258-.654-2.556-.786-3.97-.405-2.899.782-4.853 3.269-6.231 5.347-.486.733-.954 1.521-1.427 2.407l-.99-3.406c-.044-.155-.087-.314-.13-.476-.273-1.01-.612-2.27-1.631-3.078-1.162-.922-2.712-1.03-4.148-.288-1.217.629-2.08 1.694-2.842 2.634-.113.139-.225.277-.337.412l-.067.082c.07-1.067.086-2.132.049-3.189-1.472 2.622-3.331 1.9-4.614.859.042 4.808-1.158 9.639-3.48 13.997-.696 1.304-.005 2.572.998 3.103a2.39 2.39 0 0 0 1.123.294c.834 0 1.543-.49 1.919-1.149 2.402-4.216 5.106-8.111 8.035-11.575.099-.116.196-.237.293-.359.113-.14.222-.275.331-.402.03.14.055.279.073.375.04.219.076.408.122.568l2.546 8.769c.264.91 1.181 1.59 2.23 1.654.924.055 1.715-.409 2.063-1.213.879-2.032 1.788-4.133 2.891-6.077l.022-.038c.995-1.753 2.234-3.935 4.01-4.7.344-.148.659-.17.991-.069l.015.006c-.057-2.717 1.283-3.575 2.88-3.644"/>
        <path d="M30.704 17.641a30.933 30.933 0 0 0-.4-4.017c-.572-3.425-2.003-6.614-4.031-8.98C23.946 1.927 20.897.325 17.455.01c-1.233-.114-2.214.69-2.33 1.908-.113 1.188.668 2.5 2.17 2.638 5.552.508 8.126 6.387 8.643 11.267a27.848 27.848 0 0 1 .152 2.676c1.283 1.041 3.142 1.763 4.614-.859"/>
    </g>
</svg>
