<?xml version="1.0" encoding="UTF-8"?>
<svg width="34px" height="34px" viewBox="0 0 34 34" version="1.1" xmlns="http://www.w3.org/2000/svg" xmlns:xlink="http://www.w3.org/1999/xlink">
    <!-- Generator: sketchtool 50.2 (55047) - http://www.bohemiancoding.com/sketch -->
    <title>B7534775-B93C-4DA9-A661-0721C51ECF5C</title>
    <desc>Created with sketchtool.</desc>
    <defs></defs>
    <g id="18.6.4" stroke="none" stroke-width="1" fill="none" fill-rule="evenodd">
        <g id="01" transform="translate(-208.000000, -34.000000)" fill="#9B9B9B">
            <g id="Group-4" transform="translate(208.000000, 34.000000)">
                <g id="Group-2">
                    <path d="M13.9102778,24.1234717 C8.27869488,24.1234717 3.69708379,19.5418606 3.69708379,13.9102778 C3.69708379,8.27869488 8.27869488,3.69708379 13.9102778,3.69708379 C19.5418606,3.69708379 24.1234717,8.27869488 24.1234717,13.9102778 C24.1234717,16.0595774 23.4546693,18.0547087 22.3161523,19.7019444 C21.6100093,20.7232638 20.7232638,21.6101942 19.7017595,22.3161523 C18.0547087,23.4544844 16.0595774,24.1234717 13.9102778,24.1234717 M33.4586083,30.8442155 L24.9647431,22.3505352 C26.7548711,20.0095417 27.8205555,17.0849636 27.8205555,13.9102778 C27.8205555,6.22773764 21.5928179,0 13.9102778,0 C6.22773764,0 0,6.22773764 0,13.9102778 C0,21.592633 6.22773764,27.8205555 13.9102778,27.8205555 C17.0849636,27.8205555 20.0093569,26.7548711 22.3503503,24.9647431 L30.8442155,33.4586083 C31.566256,34.1804639 32.7367527,34.1804639 33.4586083,33.4586083 C34.1804639,32.7367527 34.1804639,31.566256 33.4586083,30.8442155" id="Fill-1"></path>
                </g>
            </g>
        </g>
    </g>
</svg>