<svg xmlns="http://www.w3.org/2000/svg" width="34" height="34" viewBox="0 0 34 34">
    <g fill="none" fill-rule="evenodd">
        <path fill="#9B9B9B" d="M32.653 10.697a.707.707 0 1 0-1.311.536c2.19 5.575 1.04 12.169-3.458 16.667-6.225 6.225-16.466 6.046-22.46-.538C.175 21.596.054 12.69 5.156 6.794 9.619 1.634 16.615.19 22.5 2.454a.707.707 0 1 0 .527-1.315C16.73-1.296 9.272.173 4.38 5.546c-5.84 6.413-5.84 16.349 0 22.761 6.55 7.194 17.699 7.39 24.5.59 4.92-4.92 6.177-12.116 3.773-18.2"/>
        <path fill="#FF9CCE" d="M31.694 8.652a2.418 2.418 0 1 0-3.42-3.421 2.418 2.418 0 0 0 3.42 3.42"/>
    </g>
</svg>
