<svg xmlns="http://www.w3.org/2000/svg" width="34" height="34" viewBox="0 0 34 34">
    <g fill="#9B9B9B" fill-rule="evenodd">
        <path d="M18.96 16.932c0 .99-.804 1.791-1.795 1.791a1.794 1.794 0 0 1-1.796-1.791c0-.99.804-1.791 1.796-1.791.991 0 1.795.802 1.795 1.791M18.96 4.834c0 .99-.804 1.791-1.795 1.791a1.794 1.794 0 0 1-1.796-1.791c0-.99.804-1.791 1.796-1.791.991 0 1.795.802 1.795 1.79M18.96 29.03c0 .99-.804 1.791-1.795 1.791a1.794 1.794 0 0 1-1.796-1.791c0-.99.804-1.791 1.796-1.791.991 0 1.795.802 1.795 1.791M31.065 16.89c0 .988-.804 1.79-1.796 1.79a1.794 1.794 0 0 1-1.795-1.79c0-.99.804-1.792 1.795-1.792.992 0 1.796.802 1.796 1.791M31.065 4.791c0 .99-.804 1.791-1.796 1.791a1.794 1.794 0 0 1-1.795-1.79c0-.99.804-1.792 1.795-1.792.992 0 1.796.802 1.796 1.791M31.065 28.987c0 .99-.804 1.791-1.796 1.791a1.794 1.794 0 0 1-1.795-1.79c0-.99.804-1.792 1.795-1.792.992 0 1.796.802 1.796 1.791M6.856 16.953c0 .99-.804 1.792-1.796 1.792a1.794 1.794 0 0 1-1.795-1.792c0-.989.804-1.79 1.795-1.79.992 0 1.796.801 1.796 1.79M6.856 4.855c0 .99-.804 1.792-1.796 1.792a1.794 1.794 0 0 1-1.795-1.792c0-.989.804-1.79 1.795-1.79.992 0 1.796.801 1.796 1.79M6.856 29.051c0 .99-.804 1.792-1.796 1.792a1.794 1.794 0 0 1-1.795-1.792c0-.989.804-1.79 1.795-1.79.992 0 1.796.801 1.796 1.79"/>
    </g>
</svg>
