<svg xmlns="http://www.w3.org/2000/svg" width="138" height="80" viewBox="0 0 138 80">
    <g fill="#FFF" fill-rule="evenodd">
        <path d="M27.506 56.18c-.886 2.56-2.422 4.788-4.445 6.443-2.474 2.025-5.655 3.02-8.105 2.534-1.637-.324-2.899-1.297-3.751-2.891-1.633-3.052-1.735-8.444 2.74-14.56.059-.02.116-.042.174-.064 1.74-.68 5.133-1.863 8.312-2.149 3.157-.283 5.125.389 5.85 1.997.93 2.07.164 5.975-.775 8.69m-1.707-20.518c-5.577-.537-11.009 1.005-13.574 1.894-1.626-.328-3.238.244-4.424 1.604-6.615 7.583-10.784 19.368-5.187 28.605 2.365 3.903 5.948 6.42 10.362 7.28 1.074.21 2.178.312 3.294.312 4.23 0 8.64-1.472 12.29-4.182 3.816-2.833 7.03-7.274 8.82-12.184 1.934-5.304 2.061-10.685.357-15.15-1.821-4.776-5.95-7.604-11.938-8.18M42.83 20.012a6.435 6.435 0 0 0-5.45-.192c-1.849.777-3.198 2.325-4.007 4.602-.64 1.798-.806 3.58-.48 5.154.569 2.763 3.108 4.932 5.904 5.046a5.686 5.686 0 0 0 1.857-.233c2.328-.07 4.513-1.367 5.638-3.376a6.516 6.516 0 0 0 .82-3.543c.716-3.15-1.205-6.486-4.282-7.458M136.667 62.256l-14.38-16.603c-1.785-2.062-3.574-4.032-5.665-5.495-3.504.154-6.446 2.064-6.32 8.112 1.997.64 3.984 3.234 5.583 5.322.59.771 1.147 1.5 1.7 2.137l11.683 13.49c1.797 2.075 4.632 2.27 6.741.465 2.002-1.713 2.795-4.96.658-7.428"/>
        <path d="M116.622 40.158c-.51-.358-1.04-.686-1.59-.977-2.76-1.455-5.608-1.75-8.71-.9-6.36 1.74-10.647 7.274-13.672 11.902a65.67 65.67 0 0 0-3.131 5.357l-2.17-7.582c-.098-.344-.192-.698-.288-1.058-.598-2.251-1.343-5.053-3.578-6.853-2.548-2.053-5.95-2.293-9.1-.642-2.671 1.4-4.565 3.772-6.236 5.863-.247.31-.493.618-.739.92l-.147.18c.151-2.374.187-4.745.107-7.097-3.23 5.837-7.31 4.23-10.125 1.91.092 10.704-2.54 21.458-7.635 31.16-1.525 2.903-.01 5.726 2.191 6.908.847.454 1.68.654 2.463.654 1.83 0 3.386-1.09 4.21-2.557 5.272-9.387 11.204-18.057 17.631-25.768.216-.259.43-.527.643-.798.246-.311.486-.614.726-.895.065.311.121.619.16.834.09.487.166.907.268 1.263l5.586 19.521c.58 2.027 2.591 3.542 4.89 3.683 2.03.122 3.766-.91 4.53-2.7 1.927-4.524 3.921-9.201 6.342-13.529l.048-.085c2.184-3.902 4.901-8.758 8.8-10.463.753-.329 1.444-.378 2.173-.152.011.004.023.01.034.013-.127-6.048 2.815-7.958 6.319-8.112"/>
        <path d="M67.368 39.27a69.826 69.826 0 0 0-.878-8.942c-1.254-7.624-4.395-14.724-8.845-19.992C52.54 4.291 45.85.726 38.298.024c-2.706-.253-4.857 1.535-5.112 4.248-.248 2.645 1.465 5.565 4.763 5.871 12.18 1.132 17.827 14.219 18.962 25.081a62.884 62.884 0 0 1 .332 5.958c2.816 2.318 6.895 3.925 10.125-1.911"/>
    </g>
</svg>
